<?xml version="1.0" encoding="UTF-8" standalone="no"?>
<svg
   width="1338"
   height="1338"
   viewBox="0 0 1338 1338"
   fill="none"
   version="1.1"
   id="svg19"
   sodipodi:docname="Earth.svg"
   xmlns:inkscape="http://www.inkscape.org/namespaces/inkscape"
   xmlns:sodipodi="http://sodipodi.sourceforge.net/DTD/sodipodi-0.dtd"
   xmlns="http://www.w3.org/2000/svg"
   xmlns:svg="http://www.w3.org/2000/svg">
  <sodipodi:namedview
     id="namedview19"
     pagecolor="#505050"
     bordercolor="#eeeeee"
     borderopacity="1"
     inkscape:showpageshadow="0"
     inkscape:pageopacity="0"
     inkscape:pagecheckerboard="0"
     inkscape:deskcolor="#d1d1d1" />
  <g
     id="Earth">
    <g
       id="Glow">
      <circle
         id="Smallest1"
         cx="682.5"
         cy="669.5"
         r="539.5"
         fill="url(#paint0_radial_2_759)"
         fill-opacity="0.2"
         style="fill:url(#paint0_radial_2_759)" />
      <circle
         id="smaller2"
         cx="682.5"
         cy="668.5"
         r="602.5"
         fill="url(#paint1_radial_2_759)"
         fill-opacity="0.2"
         style="fill:url(#paint1_radial_2_759)" />
      <circle
         id="large"
         cx="669"
         cy="669"
         r="669"
         fill="url(#paint2_radial_2_759)"
         fill-opacity="0.2"
         style="fill:url(#paint2_radial_2_759)" />
    </g>
    <g
       id="Earth_2">
      <g
         id="g180">
        <path
           id="path182"
           d="M 1146.99,669.47 C 1146.99,930.434 939.272,1142 683.013,1142 426.733,1142 219,930.434 219,669.47 219,408.496 426.733,196.941 683.013,196.941 c 256.259,0 463.977,211.555 463.977,472.529 z"
           fill="#34b1e4" />
      </g>
      <g
         id="g184">
        <path
           id="path186"
           d="m 712.436,975.47 c 14.226,-25.778 -1.575,-78.94 -1.575,-91.824 0,-12.895 -71.194,-48.329 -88.591,-54.776 -17.396,-6.437 -25.302,3.229 -25.302,3.229 0,0 -102.827,30.601 -115.489,51.547 -12.651,20.935 -93.325,-20.946 -96.485,-40.267 -3.171,-19.342 -22.153,-77.336 -23.728,-83.784 -1.596,-6.436 -85.43,-66.045 -94.911,-67.67 -4.462,-0.749 -23.917,6.308 -45.587,17.353 18.269,222.91 188.394,401.732 404.757,428.992 1.575,-27.76 -2.53,-53.61 -0.094,-87.09 3.17,-43.49 7.916,-24.16 39.549,-40.27 31.634,-16.108 33.23,-9.66 47.456,-35.44 z"
           fill="#d7df23" />
      </g>
      <g
         id="g188">
        <path
           id="path190"
           d="m 800.426,1016.33 c -6.351,14.61 -5.784,26.95 11.549,32.34 12.683,3.97 24.106,-0.27 36.411,-3.18 10.709,-2.56 25.113,0.49 33.838,-7.23 26.331,-23.31 4.735,-44.631 -17.344,-60.691 -6.961,-5.068 -14.216,-9.666 -21.198,-14.68 -30.573,-21.93 -35.948,36.631 -43.256,53.441 z"
           fill="#d7df23" />
      </g>
      <g
         id="g192">
        <path
           id="path194"
           d="m 924.384,265.852 c -26.51,39.357 -48.568,90.252 -28.452,134.496 39.56,86.992 102.827,51.547 49.04,177.202 -53.775,125.665 -93.325,70.889 -87.005,194.939 6.331,124.04 28.484,198.147 69.609,196.544 41.124,-1.615 52.19,-169.161 159.764,-153.059 12.86,1.946 24.06,4.993 33.92,8.672 16.61,-48.618 25.73,-100.806 25.73,-155.176 0,-170.925 -89.11,-320.637 -222.606,-403.618 z"
           fill="#d7df23" />
      </g>
      <g
         id="g196">
        <path
           id="path198"
           d="m 378.663,379.414 c 37.954,22.55 45.87,20.935 94.911,90.221 49.04,69.263 -15.822,85.366 -31.644,144.975 -15.801,59.609 -12.652,101.49 9.501,120.821 22.143,19.332 158.188,11.28 148.697,-35.444 -9.501,-46.714 -11.076,-109.552 -11.076,-164.318 0,-54.765 39.549,-19.32 91.75,-41.881 52.212,-22.55 42.71,-117.614 42.71,-135.32 0,-17.728 -42.71,-85.388 -74.343,-104.719 -13.344,-8.158 -35.676,-27.757 -57.041,-47.698 -9.90915,-5.54342 -22.33617,-5.88265 -29.33784,-6.01566 -38.66648,-0.73449 -39.72783,9.81031 -50.16231,13.84763 -61.59569,23.83265 -52.66641,38.38988 -91.79417,65.73968 -17.16368,11.99719 -69.66911,39.07364 -84.03564,43.45531 -33.97906,10.36333 -50.81452,41.67579 -14.35704,49.08704 15.37,4.138 35.56,-5.026 56.222,7.249 z"
           fill="#d7df23"
           sodipodi:nodetypes="cccccscsccsssscc" />
      </g>
      <g
         id="g200">
        <path
           id="path202"
           d="m 872.494,503.626 c -8.977,-12.542 -24.358,-18.23 -39.245,-17.92 -5.302,0.118 -10.52,0.984 -15.392,2.555 -22.111,7.196 -35.728,30.473 -38.447,53.322 -2.331,19.449 7.906,88.606 9.48,95.043 1.586,6.447 3.171,24.164 1.586,37.059 -0.861,6.982 18.289,-2.705 20.284,-3.678 12.231,-6.031 24.148,-12.638 31.329,-24.859 7.969,-13.526 9.606,-29.981 15.58,-44.394 12.148,-29.265 36.82,-66.431 14.825,-97.128 z"
           fill="#d7df23" />
      </g>
      <g
         id="g204">
        <path
           id="path206"
           d="m 1068.86,741.861 c 10.69,-4.319 17.48,-7.27 20.49,-19.449 6.07,-24.431 -6.97,-51.835 -24.36,-68.098 -10.12,-9.473 -23.19,-14.595 -37.11,-12.724 -4.36,0.599 -8.86,1.7 -13.38,3.219 -18.799,6.329 -37.834,19.994 -48.28,35.22 -10.94,15.931 -8.179,35.754 -8.609,54.166 -0.305,13.43 -1.092,26.837 -2.31,40.224 -1.144,12.649 -14.961,34.75 1.522,41.828 34.605,14.883 47.057,-24.1 67.267,-45.763 12,-12.852 28.8,-22.164 44.77,-28.623 z"
           fill="#f9f98f" />
      </g>
      <g
         id="g208">
        <path
           id="path210"
           d="m 976.11,303.211 c -7.853,12.253 -13.291,28.163 -15.968,39.304 -5.596,23.224 12.714,53.664 33.953,61.983 18.025,7.046 11.935,24.282 8.705,39.55 -4.715,22.326 -12.747,44.362 -12.747,67.457 0,25.512 1.354,37.84 29.487,38.92 11.77,0.449 24.62,1.742 29.34,-11.398 5.21,-14.499 2.43,-32.857 -0.28,-47.655 -2.38,-12.884 -0.8,-17.717 3.15,-29.799 3.43,-10.457 7.91,-21.844 7.91,-33.018 0,-8.874 -9.48,-22.56 -13.44,-34.653 -3.12,-9.516 -1.82,-10.093 -3.84,-23.298 -19.81,-24.667 -42.02,-47.249 -66.27,-67.393 z"
           fill="#f9f98f" />
      </g>
      <g
         id="g212">
        <path
           id="path214"
           d="m 628.659,890.549 c -14.069,-0.642 -26.783,7.581 -39.781,11.697 -8.441,2.652 -16.903,5.132 -25.344,7.709 -7.118,2.181 -14.195,4.438 -21.208,6.95 -30.668,10.981 -60.327,27.736 -75.309,58.529 -5.775,11.858 36.62,14.124 41.261,14.435 21.775,1.486 42.731,-4.652 64.044,-7.966 22.257,-3.443 44.851,-4.213 67.015,-8.404 19.559,-3.678 33.512,-14.894 38.531,-35.06 7.244,-28.943 -24.179,-46.746 -49.209,-47.89 z"
           fill="#f9f98f" />
      </g>
      <g
         id="g216">
        <path
           id="path218"
           d="m 539.192,362.353 c -4.462,-1.176 -11.475,-7.346 -15.811,-7.036 -23.088,1.625 -7.896,39.668 0.147,48.382 13.9,15.023 30.405,31.927 51.287,15.974 8.452,-6.447 17.124,3.572 24.305,7.517 3.444,1.903 26.888,14.723 30.552,11.804 9.754,-7.773 21.492,-15.119 28.452,-25.747 16.19,-24.773 11.77,-59.726 2.111,-85.933 -9.995,-27.115 -38.269,-49.045 -63.498,-60.539 -4.725,-2.159 -9.649,-2.993 -14.394,-2.715 -18.405,1.037 -30.258,18.551 -24.41,36.417 0.052,0.128 6.373,19.374 15.822,34.365 9.501,15.044 0,17.171 -1.05,23.629 -1.596,9.73 -27.686,5.421 -33.513,3.882 z"
           fill="#f9f98f" />
      </g>
      <g
         id="g220">
        <g
           id="g234">
          <g
             id="Clip path group">
            <mask
               id="mask0_2_759"
               maskUnits="userSpaceOnUse"
               x="322"
               y="386"
               width="825"
               height="756">
              <g
                 id="clipPath226">
                <path
                   id="path224"
                   d="M 322.956,386.737 H 1147 V 1142 H 322.956 Z"
                   fill="#ffffff" />
              </g>
            </mask>
            <g
               mask="url(#mask0_2_759)"
               id="g1">
              <g
                 id="g232"
                 opacity="0.199997">
                <g
                   id="g230">
                  <path
                     id="path228"
                     d="M 322.956,967.461 C 408.04,1073.94 537.682,1142 683.008,1142 c 256.26,0 463.982,-211.566 463.982,-472.529 0,-106.035 -34.27,-203.889 -92.18,-282.733 C 931.488,580.255 628.687,996.726 322.956,967.461 Z"
                     fill="#212a3c" />
                </g>
              </g>
            </g>
          </g>
        </g>
      </g>
      <g
         id="g236">
        <g
           id="g250">
          <g
             id="Clip path group_2">
            <mask
               id="mask1_2_759"
               maskUnits="userSpaceOnUse"
               x="356"
               y="617"
               width="791"
               height="525">
              <g
                 id="clipPath242">
                <path
                   id="path240"
                   d="M 356.7,617.934 H 1147 V 1142 H 356.7 Z"
                   fill="#ffffff" />
              </g>
            </mask>
            <g
               mask="url(#mask1_2_759)"
               id="g2">
              <g
                 id="g248"
                 opacity="0.199997">
                <g
                   id="g246">
                  <path
                     id="path244"
                     d="m 356.7,1005.34 c 83.824,84.47 199.061,136.66 326.308,136.66 256.259,0 463.982,-211.566 463.982,-472.53 0,-17.428 -0.98,-34.599 -2.78,-51.536 -133.02,188.15 -414.145,492.696 -787.51,387.406 z"
                     fill="#212a3c" />
                </g>
              </g>
            </g>
          </g>
        </g>
      </g>
      <g
         id="g252">
        <g
           id="g308">
          <g
             id="Clip path group_3">
            <mask
               id="mask2_2_759"
               maskUnits="userSpaceOnUse"
               x="283"
               y="229"
               width="567"
               height="495">
              <g
                 id="clipPath258">
                <path
                   id="path256"
                   d="M 283.049,229.081 H 849.532 V 723.166 H 283.049 Z"
                   fill="#ffffff" />
              </g>
            </mask>
            <g
               mask="url(#mask2_2_759)"
               id="g5">
              <g
                 id="g306"
                 opacity="0.300003">
                <g
                   id="g304">
                  <g
                     id="Clip path group_4">
                    <mask
                       id="mask3_2_759"
                       maskUnits="userSpaceOnUse"
                       x="283"
                       y="229"
                       width="567"
                       height="495">
                      <g
                         id="clipPath262">
                        <path
                           id="path260"
                           d="M 826.454,315.237 C 888.188,418.78 821.75,574.757 678.061,663.588 534.362,752.451 367.848,740.54 306.124,637.007 244.38,533.454 310.817,377.487 454.506,288.646 598.185,199.783 764.72,211.705 826.454,315.237 Z"
                           fill="#ffffff" />
                      </g>
                    </mask>
                    <g
                       mask="url(#mask3_2_759)"
                       id="g4">
                      <g
                         id="g302">
                        <g
                           id="g300">
                          <g
                             id="Mask group">
                            <mask
                               id="mask4_2_759"
                               maskUnits="userSpaceOnUse"
                               x="-345946"
                               y="-345617"
                               width="688051"
                               height="700713">
                              <g
                                 id="Group">
                                <g
                                   id="g284">
                                <g
                                   id="g282">
                                <g
                                   id="g280">
                                <g
                                   id="g278">
                                <path
                                   id="path276"
                                   d="M -345946,-345616 H 342105 V 355095 H -345946 Z"
                                   fill="url(#paint3_linear_2_759)" />
                                </g>
                                </g>
                                </g>
                                </g>
                              </g>
                            </mask>
                            <g
                               mask="url(#mask4_2_759)"
                               id="g3">
                              <g
                                 id="g298">
                                <g
                                   id="g296">
                                <path
                                   id="path294"
                                   d="M 826.498,315.102 C 888.232,418.645 821.794,574.622 678.105,663.453 534.406,752.315 367.892,740.404 306.168,636.872 244.424,533.318 310.861,377.352 454.55,288.511 598.229,199.648 764.764,211.57 826.498,315.102 Z"
                                   fill="url(#paint4_linear_2_759)"
                                   style="fill:url(#paint4_linear_2_759)" />
                                </g>
                              </g>
                            </g>
                          </g>
                        </g>
                      </g>
                    </g>
                  </g>
                </g>
              </g>
            </g>
          </g>
        </g>
      </g>
      <g
         id="g310">
        <g
           id="g324">
          <g
             id="Clip path group_5">
            <mask
               id="mask5_2_759"
               maskUnits="userSpaceOnUse"
               x="341"
               y="255"
               width="365"
               height="307">
              <g
                 id="clipPath316">
                <path
                   id="path314"
                   d="m 341.403,255.095 h 364.43 v 306.748 h -364.43 z"
                   fill="#ffffff" />
              </g>
            </mask>
            <g
               mask="url(#mask5_2_759)"
               id="g6">
              <g
                 id="g322"
                 opacity="0.300003">
                <g
                   id="g320">
                  <path
                     id="path318"
                     d="m 693.11,303.672 c 36.862,61.833 -9.124,158.875 -102.722,216.762 -93.609,57.887 -199.386,54.68 -236.259,-7.153 -36.883,-61.854 9.103,-158.907 102.712,-216.794 93.619,-57.888 199.386,-54.669 236.269,7.185 z"
                     fill="#ffffff" />
                </g>
              </g>
            </g>
          </g>
        </g>
      </g>
    </g>
  </g>
  <defs
     id="defs19">
    <radialGradient
       id="paint0_radial_2_759"
       cx="0"
       cy="0"
       r="1"
       gradientUnits="userSpaceOnUse"
       gradientTransform="matrix(-675.99994,-276.99972,276.99972,-675.99994,682.5,669.5)">
      <stop
         stop-color="#00FFFF"
         stop-opacity="0"
         id="stop6" />
      <stop
         offset="0.0001"
         stop-color="#00FFFF"
         id="stop7" />
      <stop
         offset="0.0002"
         stop-color="#46B8E6"
         id="stop8" />
      <stop
         offset="0.645256"
         stop-color="#43B7E6"
         id="stop9" />
      <stop
         offset="0.656538"
         stop-color="#43B7E6"
         id="stop10" />
      <stop
         offset="0.740707"
         stop-color="#00FFFF"
         stop-opacity="0"
         id="stop11" />
    </radialGradient>
    <radialGradient
       id="paint1_radial_2_759"
       cx="0"
       cy="0"
       r="1"
       gradientUnits="userSpaceOnUse"
       gradientTransform="matrix(-636.99928,-259.50078,259.50078,-636.99928,682.5,668.5)">
      <stop
         offset="0.687278"
         stop-color="#47B8E6"
         id="stop12" />
      <stop
         offset="0.871997"
         stop-color="white"
         stop-opacity="0"
         id="stop13" />
    </radialGradient>
    <radialGradient
       id="paint2_radial_2_759"
       cx="0"
       cy="0"
       r="1"
       gradientUnits="userSpaceOnUse"
       gradientTransform="matrix(-805.00304,-315.49345,315.49345,-805.00304,669,669)">
      <stop
         offset="0.619412"
         stop-color="#00FFFF"
         id="stop14" />
      <stop
         offset="0.781959"
         stop-color="white"
         stop-opacity="0"
         id="stop15" />
    </radialGradient>
    <linearGradient
       id="paint3_linear_2_759"
       x1="465.35699"
       y1="347.948"
       x2="682.23102"
       y2="608.17102"
       gradientUnits="userSpaceOnUse">
      <stop
         stop-color="white"
         id="stop16" />
      <stop
         offset="1"
         stop-color="white"
         stop-opacity="0"
         id="stop17" />
    </linearGradient>
    <linearGradient
       id="paint4_linear_2_759"
       x1="465.35199"
       y1="347.98401"
       x2="682.22601"
       y2="608.20697"
       gradientUnits="userSpaceOnUse">
      <stop
         stop-color="white"
         id="stop18" />
      <stop
         offset="1"
         stop-color="white"
         id="stop19" />
    </linearGradient>
  </defs>
</svg>
