<?xml version="1.0" encoding="UTF-8" standalone="no"?>
<!-- Created with Inkscape (http://www.inkscape.org/) -->

<svg
   version="1.1"
   id="svg3040"
   width="3333.3333"
   height="2133.3333"
   viewBox="0 0 3333.3333 2133.3333"
   sodipodi:docname="Space.svg"
   inkscape:version="1.2.1 (9c6d41e410, 2022-07-14, custom)"
   xmlns:inkscape="http://www.inkscape.org/namespaces/inkscape"
   xmlns:sodipodi="http://sodipodi.sourceforge.net/DTD/sodipodi-0.dtd"
   xmlns="http://www.w3.org/2000/svg"
   xmlns:svg="http://www.w3.org/2000/svg">
  <defs
     id="defs3044" />
  <sodipodi:namedview
     id="namedview3042"
     pagecolor="#505050"
     bordercolor="#eeeeee"
     borderopacity="1"
     inkscape:showpageshadow="0"
     inkscape:pageopacity="0"
     inkscape:pagecheckerboard="0"
     inkscape:deskcolor="#505050"
     showgrid="false"
     inkscape:zoom="0.088388348"
     inkscape:cx="-1702.7131"
     inkscape:cy="2143.9477"
     inkscape:window-width="1920"
     inkscape:window-height="1012"
     inkscape:window-x="0"
     inkscape:window-y="32"
     inkscape:window-maximized="1"
     inkscape:current-layer="g4669">
    <inkscape:page
       x="0"
       y="0"
       id="page3046"
       width="3333.3333"
       height="2133.3333"
       inkscape:export-filename="../Site/Image/sky.png"
       inkscape:export-xdpi="96"
       inkscape:export-ydpi="96" />
  </sodipodi:namedview>
  <g
     id="g3048"
     inkscape:groupmode="layer"
     inkscape:label="Page 1"
     transform="matrix(1.3333333,0,0,-1.3333333,0,2133.3333)">
    <g
       id="g3050"
       transform="scale(0.1)">
      <path
         d="M 0,0 H 25000 V 16000 H 0 Z"
         style="display:inline;fill:#29044c;fill-opacity:1;fill-rule:nonzero;stroke:none"
         id="path3052"
         inkscape:label="Background" />
      <g
         id="g4515"
         inkscape:label="Sky"
         style="display:inline">
        <path
           d="m 20711.9,0 h -2698.8 c 763.3,738.902 1742.4,1315.3 2170.7,2284.3 438,991 229.2,2262.4 953.3,3068.3 935.2,1040.7 2809.5,625.1 3862.9,1473.91 V 5506.7 c -611.2,-250.6 -1281.8,-327 -1898.2,-564.7 -616.9,-237.9 -1214.8,-707.7 -1313.1,-1361.5 -18.4,-122.6 -18.6,-244.1 -5.7,-364.9 -96.7,-81.5 -188.5,-168.5 -275,-260.6 -190,-202 -354.2,-428.4 -487.6,-673.9 -250,-459.7 -392,-986.7 -392,-1546.799 v 0 0 0 0 -2.899 -0.902 -2.102 -0.898 -2.098 -0.902 -2.5 -0.301 c 1,-248.199 29.7,-489.597 83.5,-721.699 M 0,0 v 0 11655.1 c 506.605,276.6 1128.1,453.1 1505.9,888.3 444.3,511.8 458.7,1271.1 804.2,1854.2 444.9,750.9 1338.9,1076.7 2088.2,1524.4 41.61,24.8 83,50.8 124.1,78 H 25000 8436.6 c -632.6,-280.8 -1326.2,-416.3 -2015.2,-506.3 -710.51,-92.7 -1501,-177.1 -1973.5,-715.9 -875.0156,-1431.131 -1408.9776,-2115.113 -396.3,-3566.5 -219.7,-910 -1096.3,-1617.9 -2032.1,-1641 -19.59,-0.48 -39.22,-0.71 -58.89,-0.71 -109.96,0 -221.03,6.95 -331.95,13.9 -110.91,6.95 -221.64,13.89 -331.04,13.89 -177.15,0 -350.729,-18.22 -515.421,-84.18 C 383.801,9353.5 150.402,8961.8 0,8547.8 V 0"
           style="display:inline;fill:#320c55;fill-opacity:1;fill-rule:nonzero;stroke:none"
           id="path3054"
           sodipodi:nodetypes="cccccccccccscccccccccccsccccccccccccccsssccc" />
        <path
           d="m 18013.1,0 h -1342.8 c 310.3,631.801 918.7,1057.5 1446.5,1526.9 60.3,53.6 120,108.6 178.8,164.8 5.5,-36.7 14.5,-72.3 26.7,-106.5 v 0 0 c -344.096,1409.591 1605.076,652.5865 578.6,779.9 431.1,567.6 733.5,1219 761.1,1923.7 5.5,143.1 -1.2,290.4 -57.5,422.1 -56.2,131.7 -170.6,245.8 -312,268.3 -18.8,3 -37.3,4.4 -55.6,4.4 -189.2,0 -355.5,-150.3 -515.8,-263.5 -321,-226.6 -710.4,-328.7 -1077.9,-467.6 -367.6,-139 -740.1,-336.8 -935,-678 -320.5,-561.4 -51.9,-1289.3 -253.3,-1903.6 C 16313.7,1240.2 15957.1,915.602 15581.8,661.402 15250.7,437.199 14892.3,249.602 14581.5,0 h -3526.3 c 318.6,563.398 816.9,1013.3 1441.9,1145 217.6,45.8 450,56.3 685.2,56.3 98.9,0 198.3,-1.8 297.3,-3.7 99.1,-1.8 197.7,-3.7 295.1,-3.7 522.2,0 1007.9,53.3 1320.5,445.5 448.5,562.6 151.9,1417 414.2,2087 517.3,1321.9 2859.3,1311.8 3086,2713.1 58.7,362.6 -57.1,741.4 31.1,1098 176.8,715.1 1051.2,992.2 1787.8,1001.4 29.9,0.38 59.9,0.55 90,0.55 118.5,0 238.2,-2.6 358.3,-5.2 120.2,-2.6 240.7,-5.19 360.6,-5.19 480,0 950.5,41.62 1350.2,291.44 700.6,438.1 916.7,1364.6 896.9,2190.7 -19.8,826.1 -210.4,1658.5 -60.9,2471.2 166.8,906.6 734.6,1678.2 1153.3,2499.4 3.1,6.1 6.2,12.1 9.2,18.2 H 11785.1 c -75.2,-29.9 -149.1,-63.1 -221.6,-100.2 -510.8,-261.5 -942,-774.1 -913.8,-1347.2 22.5,-458.3 324.9,-856.7 412,-1307.2 152.8,-790.7 -398.3,-1571.3 -1082.2,-1996.5 -683.9,-425.2 -1490.9,-593.9 -2249,-865.9 -758,-271.9 -1524.7,-700.3 -1871.1,-1427.4 -426.4,-895.2 -99.6,-1973.4 -344,-2934.49 -73.51,-289.21 -195.74,-557.01 -353.67,-804.71 -210.82,-59.1 -6.3667,-670.6941 -267.9642,-488.7326 -379.9276,-301.183 -480.5376,-1625.1538 -667.7747,-1597.1913 -30.8,10.4 -1013.8295,973.0071 -676.0593,1750.9392 44.1244,329.487 -352.8824,494.679 -458.8624,519.779 107.43,382.6 364.6106,914.4457 516.8706,1280.9557 131.95,317.61 339,597.05 526.44,885.41 224.37,345.17 468.34,771.46 418.17,1200.82 -33.88,289.95 -337.31,512.06 -625.68,512.06 -29.11,0 -58.05,-2.26 -86.55,-6.94 -154.59,-25.39 -282.86,-146.37 -416.25,-220.4 C 3225.53,8942.92 3011.76,8861.66 2795.79,8792.98 2349.39,8651.01 1882.88,8553.63 1473.63,8325.73 625.945,7853.68 143.223,6804.59 336.184,5853.7 373.777,5668.5 436.875,5486.8 523.059,5317.5 343.527,5245.4 168.84,5162.2 0,5068.5 v -1711.1 -255.1 -13.1 -1154.5 -76 -850.8 0 V 0 8547.8 c 150.402,414 383.801,805.7 782.199,965.4 164.692,65.96 338.271,84.18 515.421,84.18 109.4,0 220.13,-6.94 331.04,-13.89 110.92,-6.95 221.99,-13.9 331.95,-13.9 19.67,0 39.3,0.23 58.89,0.71 935.8,23.1 1812.4,731 2032.1,1641 762.4119,217.196 1738.51,792.083 1857.92,1521.7 31.41,-3.4 63.16,-5 95.09,-5 210.75,0 430.51,68.5 631.64,143.2 771.71,286.6 1663.5,735.2 1891.72,1603.1 154.61,587.9 -348.69,737.4 -836.7,737.4 -184.97,0 -367.72,-21.5 -511.65,-48.7 -475.12,-89.8 -929.58,-294.6 -1305.36,-599.8 -183.1,-148.7 451.7043,-1916.458 338.5243,-2121.258 C 6091.8912,9544.9063 3953.9936,10830.061 4051.096,11186.151 2642.7854,12894.97 4362.34,14680.2 4447.9,14777.8 c 472.5,538.8 1262.99,623.2 1973.5,715.9 689,90 1382.6,225.5 2015.2,506.3 H 25000 v -2593.5 c -568.8,-835.7 -467,-1814.4 -633,-2769.2 -151.5,-871.5 -126.9,-1778.4 -988,-2297 -641.078,-387.0261 -619.317,-492.8722 -1393.6,-445.6 -475.8,-116.59 -968.9,-297.6 -1266.7,-686.59 -173.9,-227.21 -242.6,-600.61 -10.7,-768.11 81.2,-58.66 179,-77 280.3,-77 77.9,0 157.7,10.82 233.7,22.5 661.5,101.5 1322.9,203.11 1984.4,304.7 622.9,95.6 1231.3,126.6 1793.6,337.61 v -201.3 C 23946.6,5977.7 22072.3,6393.3 21137.1,5352.6 20413,4546.7 20621.8,3275.3 20183.8,2284.3 19755.5,1315.3 18776.4,738.902 18013.1,0 M 9362.71,14019.7 c -252.41,0 -442.85,-455.3 -472.3,-642.1 -14.58,-92.5 -8.31,-202.6 67.2,-258 28.81,-21.1 64.04,-30.5 99.88,-30.5 29.76,0 59.94,6.5 87.24,18.1 60.19,25.6 108.63,72.5 151.33,122.1 125.74,145.9 447.15,655.9 149.04,774.1 -28.07,11.1 -55.6,16.3 -82.39,16.3"
           style="display:inline;fill:#3a145e;fill-opacity:1;fill-rule:nonzero;stroke:none"
           id="path3056"
           sodipodi:nodetypes="ccccsccccccsccccccccscscccccssscscccccccsccccccccccsscccccccccccccccccssscccsccsccccccccccccccsccccccccccscccc" />
        <path
           d="M 11055.2,0 H 8624.8 c 47.9,143.902 81.2,291.898 94.3,445.301 13.36,155.801 5.37,309 -17.51,460.301 0.33,0.199 0.83,0.5 1.16,0.699 0.84,0.597 1.65,1.101 2.49,1.601 1.13,0.7 2.19,1.297 3.31,2 1.78,1.098 3.48,2.098 5.25,3.2 0.47,0.296 0.95,0.597 1.42,0.898 1.46,0.902 3.16,1.898 4.63,2.801 0.46,0.301 0.94,0.601 1.4,0.898 1.88,1.102 3.75,2.203 5.63,3.403 h 0.05 C 9604.25,1458.1 10364.6,1993.3 10979.5,2505.3 c 0.2,0.1 0.3,0.2 0.5,0.4 l 1.5,1.2 c 173,144.1 334.5,286.4 483.9,426.4 v 0 0 c 31.9,29.9 63.3,59.7 94.1,89.5 16.5,-146.8 48.4,-291.7 94.6,-429.6 103.9,-310.3 285.4,-615.5 578,-762.1 132.9,-66.6 278.7,-95 426.8,-95 185.2,0 374.1,44.5 546.3,114.5 480.7,195.4 879.1,585.1 1085.1,1061.4 138,318.8 190.6,666.7 268.5,1005.3 82,356 200.7,707.1 451.9,980.7 199.8,217.7 464.5,396.5 572.1,686.7 124.6,335.9 -27.9,446.24 -267.8,446.24 -329.9,0 -825,-208.94 -991.1,-327.44 -274.1,-195.5 -525,-427.1 -824.1,-581.7 -246,-127.2 -519.4,-199.6 -782.4,-289.5 12.4,147.3 -6.1,285.2 -57.2,412.2 -1.1,2.7 -2.2,5.4 -3.4,8.1 -198.8,478.8 -843.4,744.8 -1811.9,812.85 407.3,92.72 776.9,235.72 962.9,592.55 264.9,508.3 -40.7,1109.6 -137.6,1674.61 -179,1043.69 486.3,2168.19 1487.3,2513.59 443.9,153.2 925.9,164.9 1373.4,307.2 447.6,142.3 890.5,478.5 931.4,946.3 39.5,450.8 -301.8,850.4 -350.5,1300.3 -74.6,687.8 555.4,1266.4 1210.6,1488.6 655.1,222.2 1369.6,215.6 2028.3,427 428,137.4 810,376.9 1130.3,684.4 h -3162.6 c -447.5,-247.1 -927.8,-433.4 -1430.5,-545.2 -592.1,-131.7 -1323.9,-208.7 -1791.1,-637.2 -629,-576.7 -189.5,-1114.7 -175.8,-1780.1 29.5,-1429.5 -2034.9,-2674.5 -3227.3,-2890.9 -696.8,-126.4 -1442,-83.9 -2075.6,-400.3 -585.4,-292.3 -995.11,-861 -1230.7,-1471.4 -359.62,-931.99 -371.9262,-2454.2536 -432.5462,-3411.1036 -197.9,-49.7 -239.0023,-24.2053 -442.1123,-79.4053 -83.19,-22.6 -677.2598,-147.3077 -761.2898,-170.9077 157.93,247.7 690.4383,1118.4166 763.9483,1407.6266 244.4,961.09 -82.4,2039.29 344,2934.49 346.4,727.1 1113.1,1155.5 1871.1,1427.4 758.1,272 1565.1,440.7 2249,865.9 683.9,425.2 1235,1205.8 1082.2,1996.5 -87.1,450.5 -389.5,848.9 -412,1307.2 -28.2,573.1 403,1085.7 913.8,1347.2 72.5,37.1 146.4,70.3 221.6,100.2 h 12786.8 c -3,-6.1 -6.1,-12.1 -9.2,-18.2 -418.7,-821.2 -986.5,-1592.8 -1153.3,-2499.4 -149.5,-812.7 41.1,-1645.1 60.9,-2471.2 19.8,-826.1 -196.3,-1752.6 -896.9,-2190.7 -399.7,-249.82 -870.2,-291.44 -1350.2,-291.44 -119.9,0 -240.4,2.59 -360.6,5.19 -120.1,2.6 -239.8,5.2 -358.3,5.2 -30.1,0 -60.1,-0.17 -90,-0.55 -736.6,-9.2 -1611,-286.3 -1787.8,-1001.4 -88.2,-356.6 27.6,-735.4 -31.1,-1098 -226.7,-1401.3 -2568.7,-1391.2 -3086,-2713.1 -262.3,-670 34.3,-1524.4 -414.2,-2087 -312.6,-392.2 -798.3,-445.5 -1320.5,-445.5 -97.4,0 -196,1.9 -295.1,3.7 -99,1.9 -198.4,3.7 -297.3,3.7 -235.2,0 -467.6,-10.5 -685.2,-56.3 -625,-131.7 -1123.3,-581.602 -1441.9,-1145 m 4698.3,9985.5 c -102.2,0 -210.6,-9.04 -316.8,-22.54 -217.7,-27.65 -426,-73.98 -552.3,-99.34 -517.7,-103.97 -1001,-353.12 -1377.9,-724.26 -240.1,-236.42 -441.1,-535.17 -470,-870.88 -34.5,-399.76 189.1,-793.32 511,-1032.87 271.9,-202.36 608.9,-300.56 948,-300.58 284.9,-0.01 571.2,69.26 821.9,204.27 549.2,295.72 920.8,874.75 1020.7,1490.44 47.5,292.65 109.4,1006.64 -139.6,1238.41 -94,87.44 -259.2,117.35 -445,117.35 m 1733.6,1693 c -284,0 -401.9,-468.6 -407.6,-698.5 -3.1,-126.9 20.9,-280.5 137.8,-329.7 22.7,-9.6 46.1,-13.8 69.6,-13.8 82.5,0 166.5,52.5 229,112.3 17.1,16.4 34.9,35.6 52.8,57.1 m -103.7,3366.9 c -90,0 -197.1,-39.8 -323.6,-133.2 -460.4,-339.8 -772.1,-888.7 -800.5,-1462.9 -10.9,-220.7 33.4,-472.5 217.9,-594.3 70.1,-46.2 148.3,-66 228.9,-66 175.1,0 361.6,93.4 500.9,211.3 289,244.7 488.9,592.5 554.8,965.5 70.6,399 -6.8,1079.6 -378.4,1079.6 m 5938.8,947.5 c 181.4,265.4 300.3,566.7 378.5,879.7 h -2707.9 c -111.8,-121.6 -244.8,-227.5 -382.8,-313.6 -371.6,-231.8 -797.6,-371.3 -1152.7,-627.7 -161.8,-116.7 -310.1,-261.2 -391.4,-443.4 -81.3,-182.2 -85.8,-406.9 25.1,-572.7 111.3,-166.5 317.7,-244.3 520.5,-244.3 36.3,0 72.4,2.5 107.9,7.4 233.8,32.5 445.5,151.7 648.3,272.4 202.9,120.8 408.2,247.5 638.8,298 94,20.6 188.9,27.9 284.5,27.9 116.2,0 233.4,-10.8 350.7,-21.6 90.7,-8.3 181.5,-16.7 272.1,-20 M 8542.82,1512.8 c -60.56,174.8 -129.72,349 -196.8,523.9 945.58,777.6 1420.65,1482 1226.44,1964.2 C 10209.93,-827.23939 3702.3866,-136.06494 3661.6966,-87.264936 3469.9366,142.73506 8902.45,4525.9 8372.8,4572.9 c 95.64,176.8 210.11,343.7 340.68,496.4 34.74,-4.5 346.6085,559.7095 380.3485,554.6095 C 9804.4285,5515.3095 10013.8,4693.5 10195.8,4290.4 v 0 0 c 5,-10.8 9.7,-21.7 14.1,-32.8 v 0 c 0.1,-0.4 0.3,-0.9 0.5,-1.3 0.1,-0.3 0.2,-0.5 0.3,-0.8 0.1,-0.2 0.1,-0.3 0.2,-0.5 l 0.3,-0.9 c 0.1,-0.1 0.2,-0.3 0.2,-0.4 0.1,-0.3 0.3,-0.6 0.4,-0.9 0,-0.1 0.1,-0.2 0.1,-0.4 0.1,-0.3 -136.844,700.2564 0.4,-1 -485.7331,562.0843 87.837,1228.9877 29.161,645.7076 -18.641,562.7751 401.048,-211.9971 401.148,-212.3971 l 2241.998,-364.9723 c 167.3,-427.2 -6410.6195,-9820.4306 -6076.4959,-3541.40343 C 6581.7811,487.03477 9217.78,2095.6 8865,1784.9 c -0.1,-0.1 -0.36,-0.3 -0.46,-0.4 l -2.07,-1.8 c -0.1,-0.1 -0.31,-0.3 -0.41,-0.3 -0.43,-0.4 -1.01,-0.9 -1.44,-1.3 -101.17,-89 -207.14,-178.4 -317.8,-268.3 M 6168.6743,4029.8266 C 3134.0277,-3474.9603 1644.5507,-354.19963 590.22973,-83.010151 -391.27522,169.44978 -193.86302,-568.8911 20.032037,889.95506 1.5320371,906.45506 -123.07373,2021.1077 -141.87373,2037.4077 c -39.78721,34.2969 1763.26183,-233.1739 2847.90273,623.3565 1785.9751,1410.3671 2740.8936,3029.6066 2694.546,3064.1241 275.88,62.6 114.395,-871.1883 376.285,-823.8883 64.59,11.7 128.73,22.9 192.38,33.6 -8.72,-73.1 -18.6,-146.3 -29.84,-219.6 -18.37,-119.7 -40.97,-237.9 -67.54,-354.5 -113.27,-22.2 418.0478,-145.3824 301.2878,-170.6824"
           style="display:inline;fill:#421b66;fill-opacity:1;fill-rule:nonzero;stroke:none"
           id="path3058"
           sodipodi:nodetypes="cccccccsccccccccscscccscccccsccccccccccccccccccccccccccccscccccccscssscccccscsccccccccccccccccsccccccsccccccccscscccscccccccccscssscccccccccccccccccccsccscccccc" />
        <path
           d="M 8624.8,0 H 7108.57 c 561.3,298.102 1091.13,599.5 1584.24,900.301 0.11,0 0.27,0.101 0.37,0.199 1.46,0.902 2.95,1.801 4.41,2.699 0.42,0.199 0.84,0.5 1.26,0.801 0.92,0.5 1.81,1.102 2.74,1.602 22.88,-151.301 30.87,-304.5 17.51,-460.301 C 8706,291.898 8672.7,143.902 8624.8,0 M 6762.87,280.199 c 3.51,20.903 6.89,41.903 10.12,63 v 0 l 0.03,0.102 3.78,25.398 c 29.87,202.199 46.12,403.199 49.34,602.102 h 0.02 c 65.5,40.299 130.1,80.499 193.7,120.699 v 0 c 507.04,320.3 2417.1595,3320.5741 4302.689,3210.5566 67.08,-174.9 1538.58,-1343.361 -2779.729,-2789.2566 C 8080.82,1137.7 7537.74,756.5 6927.96,380.801 6873.5,347.199 6818.44,313.602 6762.87,280.199 M 5501.3738,699.01083 c -6520.1505,-2763.76393 585.7218,2228.14017 376.595,3196.90257 8.3756,0.5911 -28.484,3.3551 -21.0188,3.7866 0.43,0 0.84,0.1 1.27,0.1 1.43,0.1 2.9,0.2 4.33,0.2 1.08,0.1 2.14,0.2 3.23,0.2 0.68,0.1 1.38,0.1 2.07,0.1 124.88,7.2 245.33,10.7 360.91,10.7 h 0.3 0.18 c 82.75,0 163.01,-1.8 240.64,-5.5 6.41,-0.3 12.81,-0.6 19.18,-0.9 v 0 c 562.58,-28.8 985.31,-155.1 1213.44,-383.1 63.85,-63.8 112.47,-135.6 144.62,-215.5 169,-419.6 -66.8076,-864.8435 -726.4976,-1482.0435 M 5871.86,4360.5 c 26.57,116.6 49.17,234.8 67.54,354.5 11.24,73.3 21.12,146.5 29.84,219.6 432.6,73 843.16,124.3 1226.58,153.4 38.75,-14 80.18,-21.7 124.35,-21.7 47.74,0 98.74,9 153.03,28.6 10.53,3.8 20.86,7.8 30.94,12.1 140.14,6.4 276.21,9.7 407.8,9.7 289.6,0 557.75,-15.7 801.54,-47.4 C 8582.91,4916.6 7934.2416,3212.8546 7838.6016,3036.0546 6393.9637,4159.8898 7453.5507,2862.054 5875.069,3898.8139 m 8.7187,635.5714 c 60.62,956.85 143.9923,2808.5247 503.6123,3740.5147 235.59,610.4 645.3,1179.1 1230.7,1471.4 633.6,316.4 1378.8,273.9 2075.6,400.3 1192.4,216.4 3256.8,1461.4 3227.3,2890.9 -13.7,665.4 -453.2,1203.4 175.8,1780.1 467.2,428.5 1199,505.5 1791.1,637.2 502.7,111.8 983,298.1 1430.5,545.2 H 19481 c -320.3,-307.5 -702.3,-547 -1130.3,-684.4 -658.7,-211.4 -1373.2,-204.8 -2028.3,-427 -655.2,-222.2 -1285.2,-800.8 -1210.6,-1488.6 48.7,-449.9 390,-849.5 350.5,-1300.3 -40.9,-467.8 -483.8,-804 -931.4,-946.3 -447.5,-142.3 -929.5,-154 -1373.4,-307.2 -1001,-345.4 -1666.3,-1469.9 -1487.3,-2513.59 96.9,-565.01 402.5,-1166.31 137.6,-1674.61 -341.211,8.2498 -1014.523,-337.5748 -589.826,-582.681 3448.499,-446.5808 1429.356,-2223.1281 -22.538,-1885.5262 C 10050.411,4456.0399 8602.9424,5591.7517 8050.1,5871.5 c 49.73,104.6 104.1,203.15 173.79,283.91 363.76,421.51 1012.87,385.14 1544.27,551.24 496.14,155.1 923.14,519.45 1154.44,985.03 231.2,465.57 263.5,1025.98 87.3,1515.04 -31.8,88.31 -77,181.63 -162.4,220.56 -28.7,13.07 -57,18.88 -85.1,18.88 -146.3,0 -283.4,-158.41 -406.7,-267.41 C 10032.6,8893.17 9554.8,8907.74 9128.82,8841.04 8399.94,8726.93 7721.45,8318.65 7279.25,7728.1 6858.76,7166.52 6770.5835,5600.2718 6992.7435,4898.3418 c -255.37,-56.5 -489.2482,-93.1831 -755.0082,-159.8831 M 14095.1,14349.6 c -63.1,0 -135.8,-22.2 -218.9,-72.9 -344.1,-210.1 -421.6,-984.3 15.2,-1137.3 32.7,-11.5 66,-16.8 99.1,-16.8 174.9,0 344.6,148.6 402.4,322.7 98.7,296.9 32.5,904.3 -297.8,904.3"
           style="display:inline;fill:#49226e;fill-opacity:1;fill-rule:nonzero;stroke:none"
           id="path3060"
           sodipodi:nodetypes="ccccccccccscccccsscccccccccccscscsscccccccsscscccccccccccccccccccccsccccccsccccccccscc" />
        <path
           d="m 6004.61,12728 c -31.93,0 -63.68,1.6 -95.09,5 -1459.7669,-132.048 -983.3337,1010.697 -579.9555,1354.27 113.18,204.8 361.5955,327.23 544.6955,475.93 375.78,305.2 830.24,510 1305.36,599.8 143.93,27.2 326.68,48.7 511.65,48.7 488.01,0 991.31,-149.5 836.7,-737.4 -228.22,-867.9 -1120.01,-1316.5 -1891.72,-1603.1 -201.13,-74.7 -420.89,-143.2 -631.64,-143.2"
           style="display:inline;fill:#421b66;fill-opacity:1;fill-rule:nonzero;stroke:none"
           id="path3062"
           sodipodi:nodetypes="cccccsccc" />
        <path
           d="m 9057.49,13089.1 c -35.84,0 -71.07,9.4 -99.88,30.5 -75.51,55.4 -81.78,165.5 -67.2,258 29.45,186.8 219.89,642.1 472.3,642.1 26.79,0 54.32,-5.2 82.39,-16.3 298.11,-118.2 -23.3,-628.2 -149.04,-774.1 -42.7,-49.6 -91.14,-96.5 -151.33,-122.1 -27.3,-11.6 -57.48,-18.1 -87.24,-18.1"
           style="display:inline;fill:#421b66;fill-opacity:1;fill-rule:nonzero;stroke:none"
           id="path3064" />
        <path
           d="m 523.059,5317.5 c -86.184,169.3 -149.282,351 -186.875,536.2 -192.961,950.89 289.761,1999.98 1137.446,2472.03 409.25,227.9 875.76,325.28 1322.16,467.25 215.97,68.68 429.74,149.94 628.28,260.12 133.39,74.03 261.66,195.01 416.25,220.4 28.5,4.68 57.44,6.94 86.55,6.94 288.37,0 591.8,-222.11 625.68,-512.06 50.17,-429.36 -193.8,-855.65 -418.17,-1200.82 C 3946.94,7279.2 3739.89,6999.76 3607.94,6682.15 3515.5811,5120.8232 2101.9758,3983.1626 523.059,5317.5 M 1692.32,7338.02 c -306.41,0 -441.61,-306.22 -440.92,-612.42 0.69,-306.22 137.24,-612.43 374.35,-612.43 115.09,0 253.9,72.18 412.33,251.53 143.37,162.29 209.35,395.71 151.99,604.53 -38.63,140.61 -136.44,269.28 -272.44,321.9 -83.5,32.32 -158.47,46.89 -225.31,46.89"
           style="display:inline;fill:#421b66;fill-opacity:1;fill-rule:nonzero;stroke:none"
           id="path3066"
           sodipodi:nodetypes="ccsccsssscccsscccc" />
        <path
           d="m 1625.75,6113.17 c -237.11,0 -373.66,306.21 -374.35,612.43 -0.69,306.2 134.51,612.42 440.92,612.42 66.84,0 141.81,-14.57 225.31,-46.89 136,-52.62 233.81,-181.29 272.44,-321.9 57.36,-208.82 -8.62,-442.24 -151.99,-604.53 -158.43,-179.35 -297.24,-251.53 -412.33,-251.53"
           style="display:inline;fill:#49226e;fill-opacity:1;fill-rule:nonzero;stroke:none"
           id="path3068" />
        <path
           d="M 0,13158.3 V 16000 h 2607.6 c -211,-114.1 -431.7,-213.6 -647.4,-318.7 C 1553.3,15483 1144.9,15249.4 878.602,14883.4 629.203,14540.6 528.504,14115.4 360.199,13726.3 272.004,13522.4 152.996,13318.9 0,13158.3 M 0,16000 v -1313.9 c 161.297,184.9 297.805,392.3 465.094,572.4 272.207,292.9 617.506,504.9 940.396,741.5 H 0"
           style="display:inline;fill:#320c55;fill-opacity:1;fill-rule:nonzero;stroke:none"
           id="path3070" />
        <path
           d="M 0,14686.1 V 16000 H 1405.49 C 1082.6,15763.4 737.301,15551.4 465.094,15258.5 297.805,15078.4 161.297,14871 0,14686.1"
           style="display:inline;fill:#3a145e;fill-opacity:1;fill-rule:nonzero;stroke:none"
           id="path3072" />
        <path
           d="m 14495.5,6935.03 c -339.1,0.02 -676.1,98.22 -948,300.58 -321.9,239.55 -545.5,633.11 -511,1032.87 28.9,335.71 229.9,634.46 470,870.88 376.9,371.14 860.2,620.29 1377.9,724.26 126.3,25.36 334.6,71.69 552.3,99.34 106.2,13.5 214.6,22.54 316.8,22.54 185.8,0 351,-29.91 445,-117.35 249,-231.77 187.1,-945.76 139.6,-1238.41 -99.9,-615.69 -471.5,-1194.72 -1020.7,-1490.44 -250.7,-135.01 -537,-204.28 -821.9,-204.27 m -284.7,1902.91 c -0.9,0 -1.8,0 -2.7,-0.01 -447.9,-2.13 -637.7,-665.62 -501.4,-1011.69 50.5,-128.17 166.2,-237.48 303.5,-247.86 7.7,-0.58 15.3,-0.86 22.8,-0.86 173.5,0 316.3,150.22 405.1,302.94 166,285.39 279.2,957.48 -227.3,957.48"
           style="display:inline;fill:#49226e;fill-opacity:1;fill-rule:nonzero;stroke:none"
           id="path3074" />
        <path
           d="m 14033,7577.52 c -7.5,0 -15.1,0.28 -22.8,0.86 -137.3,10.38 -253,119.69 -303.5,247.86 -136.3,346.07 53.5,1009.56 501.4,1011.69 0.9,0.01 1.8,0.01 2.7,0.01 506.5,0 393.3,-672.09 227.3,-957.48 -88.8,-152.72 -231.6,-302.94 -405.1,-302.94"
           style="display:inline;fill:#502975;fill-opacity:1;fill-rule:nonzero;stroke:none"
           id="path3076" />
        <path
           d="m 19693.1,13798.3 c -202.8,0 -409.2,77.8 -520.5,244.3 -110.9,165.8 -106.4,390.5 -25.1,572.7 81.3,182.2 229.6,326.7 391.4,443.4 355.1,256.4 781.1,395.9 1152.7,627.7 138,86.1 271,192 382.8,313.6 h 2707.9 c -78.2,-313 -197.1,-614.3 -378.5,-879.7 -211.611,-829.395 -1420.536,-758.143 -1408.4,-757.9 -90.6,3.3 -181.4,11.7 -272.1,20 -117.3,10.8 -234.5,21.6 -350.7,21.6 -95.6,0 -190.5,-7.3 -284.5,-27.9 -230.6,-50.5 -435.9,-177.2 -638.8,-298 -202.8,-120.7 -414.5,-239.9 -648.3,-272.4 -35.5,-4.9 -71.6,-7.4 -107.9,-7.4 m 1953.5,2201.7 c -193.4,-223.6 -336.5,-495.9 -264,-771.9 72.6,-276.7 366.5,-438.6 656.1,-438.6 73,0 145.8,10.3 214.6,31.6 342.2,105.9 588.8,409.1 746.9,730.5 70.9,144.1 127.9,294.5 172.7,448.4 h -1526.3"
           style="display:inline;fill:#49226e;fill-opacity:1;fill-rule:nonzero;stroke:none"
           id="path3078"
           sodipodi:nodetypes="ccscccccccsccccccscccc" />
        <path
           d="m 22038.7,14789.5 c -289.6,0 -583.5,161.9 -656.1,438.6 -72.5,276 70.6,548.3 264,771.9 h 1526.3 c -44.8,-153.9 -101.8,-304.3 -172.7,-448.4 -158.1,-321.4 -404.7,-624.6 -746.9,-730.5 -68.8,-21.3 -141.6,-31.6 -214.6,-31.6"
           style="display:inline;fill:#502975;fill-opacity:1;fill-rule:nonzero;stroke:none"
           id="path3080" />
        <path
           d="m 16670.3,0 h -2088.8 c 310.8,249.602 669.2,437.199 1000.3,661.402 375.3,254.2 731.9,578.798 873.1,1009.498 201.4,614.3 -67.2,1342.2 253.3,1903.6 194.9,341.2 567.4,539 935,678 367.5,138.9 756.9,241 1077.9,467.6 160.3,113.2 326.6,263.5 515.8,263.5 18.3,0 36.8,-1.4 55.6,-4.4 141.4,-22.5 255.8,-136.6 312,-268.3 56.3,-131.7 63,-279 57.5,-422.1 1.79,-1208.3497 -714.262,-2051.2022 -1545.2,-2761.9 C 17589,1057.5 16980.6,631.801 16670.3,0 m 1683.5,3961.9 c -157.6,0 -438.9,-248.6 -547.9,-338.6 -346,-285.6 -609,-673.8 -735.4,-1105.1 -52.2,-178.1 -63.1,-410 94.3,-508.3 45.1,-28.2 96.1,-39.5 148.7,-39.5 74.9,0 153.1,22.8 222.8,52.1 562.6,236.7 909.5,834.7 999.4,1438.4 24.5,164.6 42.3,480.7 -169.2,500.4 -4.1,0.4 -8.4,0.6 -12.7,0.6"
           style="display:inline;fill:#421b66;fill-opacity:1;fill-rule:nonzero;stroke:none"
           id="path3082"
           sodipodi:nodetypes="cccccccscccccccccscccc" />
        <path
           d="m 17313.5,1970.4 c -52.6,0 -103.6,11.3 -148.7,39.5 -157.4,98.3 -146.5,330.2 -94.3,508.3 126.4,431.3 389.4,819.5 735.4,1105.1 109,90 390.3,338.6 547.9,338.6 4.3,0 8.6,-0.2 12.7,-0.6 211.5,-19.7 193.7,-335.8 169.2,-500.4 -89.9,-603.7 -436.8,-1201.7 -999.4,-1438.4 -69.7,-29.3 -147.9,-52.1 -222.8,-52.1"
           style="display:inline;fill:#49226e;fill-opacity:1;fill-rule:nonzero;stroke:none"
           id="path3084" />
        <path
           d="m 20988.3,6363 c -101.3,0 -199.1,18.34 -280.3,77 -231.9,167.5 -163.2,540.9 10.7,768.11 297.8,388.99 790.9,570 1266.7,686.59 434.302,193.5185 1015.008,240.712 1393.6,445.6 861.1,518.6 836.5,1425.5 988,2297 166,954.8 64.2,1933.5 633,2769.2 V 9239.4 c -106.9,-92.2 -213.8,-184.3 -320.7,-276.4 -165.2,-142.4 -331.9,-286.4 -460.8,-462.2 -128.9,-175.8 -218.5,-388.99 -208.1,-606.7 7.8,-164.1 87.1,-338.4 239.2,-400.4 41.1,-16.76 83.3,-24.16 125.7,-24.16 142.1,0 287.3,82.62 404,174.06 77.8,60.9 151.6,126.9 220.7,197.2 V 7027.81 C 24437.7,6816.8 23829.3,6785.8 23206.4,6690.2 22544.9,6588.61 21883.5,6487 21222,6385.5 c -76,-11.68 -155.8,-22.5 -233.7,-22.5"
           style="display:inline;fill:#421b66;fill-opacity:1;fill-rule:nonzero;stroke:none"
           id="path3086"
           sodipodi:nodetypes="cccccccccsccscccccc" />
        <path
           d="m 7320.17,5066.3 c -44.17,0 -85.6,7.7 -124.35,21.7 104.82,8 207.65,14.3 308.32,19 -10.08,-4.3 -20.41,-8.3 -30.94,-12.1 -54.29,-19.6 -105.29,-28.6 -153.03,-28.6 m -523.72,561.6 c -222.16,701.93 62.31,1538.62 482.8,2100.2 442.2,590.55 1120.69,998.83 1849.57,1112.94 425.98,66.7 903.78,52.13 1226.88,337.71 123.3,109 260.4,267.41 406.7,267.41 28.1,0 56.4,-5.81 85.1,-18.88 85.4,-38.93 130.6,-132.25 162.4,-220.56 176.2,-489.06 143.9,-1049.47 -87.3,-1515.04 -231.3,-465.58 -658.3,-829.93 -1154.44,-985.03 -531.4,-166.1 -1180.51,-129.73 -1544.27,-551.24 -69.69,-80.76 643.57,76.8573 698.2491,-987.167 C 8172.0258,4795.1683 6893.5606,4136.3332 6796.45,5627.9"
           style="display:inline;fill:#3c1660;fill-opacity:1;fill-rule:nonzero;stroke:none"
           id="path3088"
           sodipodi:nodetypes="cccccccccsccccccc" />
        <path
           d="m 16787.7,11916.4 c -80.6,0 -158.8,19.8 -228.9,66 -184.5,121.8 -228.8,373.6 -217.9,594.3 28.4,574.2 340.1,1123.1 800.5,1462.9 126.5,93.4 233.6,133.2 323.6,133.2 371.6,0 449,-680.6 378.4,-1079.6 -65.9,-373 -265.8,-720.8 -554.8,-965.5 -139.3,-117.9 -325.8,-211.3 -500.9,-211.3"
           style="display:inline;fill:#38125c;fill-opacity:1;fill-rule:nonzero;stroke:none"
           id="path3090" />
        <path
           d="m 17286.9,10636.5 c -23.5,0 -46.9,4.2 -69.6,13.8 -116.9,49.2 -140.9,202.8 -137.8,329.7 5.7,229.9 123.6,698.5 407.6,698.5 34.9,0 72.2,-7 112.2,-22.4 212.668,-283.065 111.98,-718.99 -83.4,-907.3 -62.5,-59.8 -146.5,-112.3 -229,-112.3"
           style="display:inline;fill:#38125c;fill-opacity:1;fill-rule:nonzero;stroke:none"
           id="path3092"
           sodipodi:nodetypes="cccsccc" />
        <path
           d="m 12658.9,1736.1 c -148.1,0 -293.9,28.4 -426.8,95 -292.6,146.6 -474.1,451.8 -578,762.1 -46.2,137.9 -78.1,282.8 -94.6,429.6 81.702,1476.5307 838.033,1422.0988 1157.9,1809.5 263,89.9 536.4,162.3 782.4,289.5 299.1,154.6 550,386.2 824.1,581.7 166.1,118.5 661.2,327.44 991.1,327.44 239.9,0 392.4,-110.34 267.8,-446.24 -107.6,-290.2 -372.3,-469 -572.1,-686.7 -251.2,-273.6 -369.9,-624.7 -451.9,-980.7 -77.9,-338.6 -130.5,-686.5 -268.5,-1005.3 -206,-476.3 -604.4,-866 -1085.1,-1061.4 -172.2,-70 -361.1,-114.5 -546.3,-114.5 m 390.6,2172.2 c -145.1,0 -306,-94 -407.7,-294.8 -91.6,-180.5 -108.2,-389.8 -102.4,-592.2 4.2,-148.6 51.4,-334 197.9,-359.8 10.5,-1.8 21,-2.7 31.3,-2.7 99.5,0 187.1,82 255.8,159.3 152.7,171.8 301.5,362.5 340.1,589 54.9,323 -115.2,501.2 -315,501.2"
           style="display:inline;fill:#38125c;fill-opacity:1;fill-rule:nonzero;stroke:none"
           id="path3094"
           sodipodi:nodetypes="cccccccsccccscccccsccc" />
        <path
           d="m 12768.6,2658.8 c -10.3,0 -20.8,0.9 -31.3,2.7 -146.5,25.8 -193.7,211.2 -197.9,359.8 -5.8,202.4 10.8,411.7 102.4,592.2 101.7,200.8 262.6,294.8 407.7,294.8 199.8,0 369.9,-178.2 315,-501.2 -38.6,-226.5 -187.4,-417.2 -340.1,-589 -68.7,-77.3 -156.3,-159.3 -255.8,-159.3"
           style="display:inline;fill:#320c56;fill-opacity:1;fill-rule:nonzero;stroke:none"
           id="path3096" />
        <path
           d="m 13990.5,13122.6 c -33.1,0 -66.4,5.3 -99.1,16.8 -436.8,153 -359.3,927.2 -15.2,1137.3 83.1,50.7 155.8,72.9 218.9,72.9 330.3,0 396.5,-607.4 297.8,-904.3 -57.8,-174.1 -227.5,-322.7 -402.4,-322.7"
           style="display:inline;fill:#3c1660;fill-opacity:1;fill-rule:nonzero;stroke:none"
           id="path3098" />
        <path
           d="m 24375.3,7469.54 c -42.4,0 -84.6,7.4 -125.7,24.16 -152.1,62 -231.4,236.3 -239.2,400.4 -10.4,217.71 79.2,430.9 208.1,606.7 128.9,175.8 295.6,319.8 460.8,462.2 106.9,92.1 213.8,184.2 320.7,276.4 V 7840.8 c -69.1,-70.3 -142.9,-136.3 -220.7,-197.2 -116.7,-91.44 -261.9,-174.06 -404,-174.06"
           style="display:inline;fill:#38125c;fill-opacity:1;fill-rule:nonzero;stroke:none"
           id="path3100" />
      </g>
      <g
         id="g4669"
         inkscape:label="Stars"
         style="display:none">
        <path
           d="m 21180,753.6298 c -69.02,0 -69.13,-107.26 0,-107.26 69.02,0 69.13,107.26 0,107.26"
           style="fill:#ffffff;fill-opacity:1;fill-rule:nonzero;stroke:none"
           id="path3880-7" />
        <path
           d="m 6906.8553,1150.6498 c 79.6,7.4 135.5,22.4 135.5,22.4 0,0 -55.9,15 -135.5,22.3 -15.4,1.5 -29.4,8 -40.2,18 -12.1,11.2 -20.2,26.7 -21.8,44.1 -7.4,79.5 -22.4,135.5 -22.4,135.5 0,0 -15,-56 -22.4,-135.5 -3,-32.9 -29.2,-59 -62,-62.1 -79.6,-7.3 -135.5,-22.3 -135.5,-22.3 0,0 55.9,-15 135.5,-22.4 32.8,-3 59,-29.2 62,-62 7.4,-79.6 22.4,-135.49996 22.4,-135.49996 0,0 15,55.89996 22.4,135.49996 3,32.8 29.1,59 62,62"
           style="display:inline;fill:#ffffff;fill-opacity:1;fill-rule:nonzero;stroke:none"
           id="path3830-5" />
        <path
           d="m 750,4263.6299 c -69.02,0 -69.13,-107.26 0,-107.26 69.02,0 69.13,107.26 0,107.26"
           style="fill:#ffffff;fill-opacity:1;fill-rule:nonzero;stroke:none"
           id="path3880-2" />
        <path
           d="m 22500.019,2222.1649 c -67.1,0 -67.3,-104.33 0,-104.33 67.1,0 67.2,104.33 0,104.33"
           style="fill:#ffffff;fill-opacity:1;fill-rule:nonzero;stroke:none"
           id="path3842-9" />
        <path
           d="m 23760.019,1022.1649 c -67.1,0 -67.3,-104.33 0,-104.33 67.1,0 67.2,104.33 0,104.33"
           style="fill:#ffffff;fill-opacity:1;fill-rule:nonzero;stroke:none"
           id="path3842-3" />
        <path
           d="m 1020.019,1352.1649 c -67.1,0 -67.3,-104.33 0,-104.33 67.1,0 67.2,104.33 0,104.33"
           style="fill:#ffffff;fill-opacity:1;fill-rule:nonzero;stroke:none"
           id="path3842-5" />
        <path
           d="m 5130.019,11762.165 c -67.1,0 -67.3,-104.33 0,-104.33 67.1,0 67.2,104.33 0,104.33"
           style="fill:#ffffff;fill-opacity:1;fill-rule:nonzero;stroke:none"
           id="path3842-6" />
        <path
           d="m 4440.019,13862.165 c -67.1,0 -67.3,-104.33 0,-104.33 67.1,0 67.2,104.33 0,104.33"
           style="fill:#ffffff;fill-opacity:1;fill-rule:nonzero;stroke:none"
           id="path3842-2" />
        <path
           d="m 2354.2328,3249.7278 c 79.54,7.37 135.47,22.35 135.47,22.35 0,0 -55.93,14.98 -135.47,22.36 -15.46,1.44 -29.43,7.98 -40.21,17.92 -12.14,11.2 -20.23,26.73 -21.85,44.14 -7.38,79.54 -22.36,135.47 -22.36,135.47 0,0 -14.98,-55.93 -22.36,-135.47 -3.05,-32.87 -29.19,-59.01 -62.06,-62.06 -79.54,-7.38 -135.47,-22.36 -135.47,-22.36 0,0 55.93,-14.98 135.47,-22.35 32.87,-3.06 59.01,-29.19 62.06,-62.06 7.38,-79.55 22.36,-135.48 22.36,-135.48 0,0 14.98,55.93 22.36,135.48 3.05,32.87 29.19,59 62.06,62.06"
           style="fill:#ffffff;fill-opacity:1;fill-rule:nonzero;stroke:none"
           id="path3828-3" />
        <path
           d="m 4949.963,12304.35 c -69.9,0 -70,-108.7 0,-108.7 70,0 70.1,108.7 0,108.7"
           style="fill:#ffffff;fill-opacity:1;fill-rule:nonzero;stroke:none"
           id="path3848-3" />
        <path
           d="m 20849.963,12454.35 c -69.9,0 -70,-108.7 0,-108.7 70,0 70.1,108.7 0,108.7"
           style="display:inline;fill:#ffffff;fill-opacity:1;fill-rule:nonzero;stroke:none"
           id="path3848-9" />
        <path
           d="m 20010,10773.63 c -69.02,0 -69.13,-107.26 0,-107.26 69.02,0 69.13,107.26 0,107.26"
           style="display:inline;fill:#ffffff;fill-opacity:1;fill-rule:nonzero;stroke:none"
           id="path3880-0" />
        <path
           d="m 1200.019,1111.7649 c -28,0 -28.1,-43.53 0,-43.53 28,0 28,43.53 0,43.53"
           style="display:inline;fill:#ffffff;fill-opacity:1;fill-rule:nonzero;stroke:none"
           id="path3914-1" />
        <path
           d="m 4441.3,7859.6 14.8,16.7 c 0,0 7.7,0.6 -14.8,-16.7"
           style="fill:#29044c;fill-opacity:1;fill-rule:nonzero;stroke:none"
           id="path3102" />
        <path
           d="m 0,3089.2 v 13.1 c 2.48828,-1.9 4.99609,-3.9 7.48438,-5.8 C 5.00781,3094.1 2.49219,3091.7 0,3089.2"
           style="fill:#6d4693;fill-opacity:1;fill-rule:nonzero;stroke:none"
           id="path3128" />
        <path
           d="m 6805.73,1483.4 c -0.42,4.4 -0.84,8.7 -1.27,13.1 0.43,-4.4 0.85,-8.7 1.27,-13.1 v 0"
           style="fill:#431c67;fill-opacity:1;fill-rule:nonzero;stroke:none"
           id="path3134" />
        <path
           d="m 6283.57,0 h -127.89 c 196.11,130.102 419.66,216 617.27,343.102 -3.22,-21 -6.59,-42 -10.1,-63 -0.03,0 -0.06,0 -0.09,0 C 6607.09,186.301 6447.23,92.8008 6283.57,0"
           style="fill:#5f3985;fill-opacity:1;fill-rule:nonzero;stroke:none"
           id="path3148" />
        <path
           d="m 6776.12,364.301 0.64,4.398 c 3.21,21.801 6.27,43.5 9.17,65.203 -2.9,-21.703 -5.95,-43.402 -9.17,-65.203 l -0.64,-4.398"
           style="fill:#5f3985;fill-opacity:1;fill-rule:nonzero;stroke:none"
           id="path3170" />
        <path
           d="m 8542.82,1512.8 v 0 c 110.66,89.9 216.63,179.3 317.8,268.3 -101.15,-89 -207.15,-178.5 -317.8,-268.3"
           style="fill:#5ca0bd;fill-opacity:1;fill-rule:nonzero;stroke:none"
           id="path3174" />
        <path
           d="m 6762.87,280.199 v 0 c 55.57,33.403 110.63,67 165.09,100.602 C 7537.74,756.5 8080.82,1137.7 8542.82,1512.8 v 0 C 8080.79,1137.7 7537.82,756.5 6927.96,380.801 6873.5,347.199 6818.44,313.602 6762.87,280.199"
           style="fill:#5fa3c0;fill-opacity:1;fill-rule:nonzero;stroke:none"
           id="path3176" />
        <path
           d="m 6283.59,0 h -0.02 c 163.66,92.8008 323.52,186.301 479.19,280.102 0.03,0 0.06,0 0.09,0 v 0 c -0.03,0 -0.06,0 -0.09,0 C 6607.09,186.301 6447.26,92.8008 6283.59,0"
           style="fill:#68acc9;fill-opacity:1;fill-rule:nonzero;stroke:none"
           id="path3178" />
        <path
           d="m 8692.81,900.301 c 0.14,0.101 0.24,0.101 0.37,0.199 -0.1,-0.098 -0.26,-0.199 -0.37,-0.199 m 4.78,2.898 c 0.46,0.301 0.79,0.5 1.26,0.801 -0.42,-0.301 -0.84,-0.602 -1.26,-0.801"
           style="fill:#5fa3c0;fill-opacity:1;fill-rule:nonzero;stroke:none"
           id="path3180" />
        <path
           d="m 10212.9,4250 c -0.1,0.1 0,0 -0.1,0.1 l 0.1,-0.1 m -0.5,1.2 c 0,0.1 0,0.1 -0.1,0.2 0,0 0.1,-0.1 0.1,-0.2 m -0.5,1.2 c 0,0.2 -0.1,0.3 -0.1,0.4 0,-0.1 0.1,-0.2 0.1,-0.4 m -0.5,1.3 c 0,0.1 -0.1,0.3 -0.2,0.4 0.1,-0.1 0.2,-0.3 0.2,-0.4 m -0.5,1.3 c -0.1,0.2 -0.1,0.3 -0.2,0.5 0.1,-0.2 0.1,-0.3 0.2,-0.5 m -0.5,1.3 c -0.2,0.4 -0.4,0.9 -0.5,1.3 0.1,-0.4 0.3,-0.9 0.5,-1.3"
           style="fill:#5ca0bd;fill-opacity:1;fill-rule:nonzero;stroke:none"
           id="path3212" />
        <path
           d="m 6805.74,1483.3 c -0.01,0 -0.01,0.1 -0.01,0.1 83.59,71 162.98,141.6 237.79,211.7 659.69,617.2 972.6,1191.3 803.6,1610.9 -32.15,79.9 -80.77,151.7 -144.62,215.5 63.87,-63.8 112.5,-135.6 144.66,-215.5 30.37,-75.4 45.18,-155.8 45.21,-240.5 0.15,-386.8 -307.65,-864.1 -848.81,-1370.4 -74.82,-70.1 -154.22,-140.8 -237.82,-211.8"
           style="fill:#3f1964;fill-opacity:1;fill-rule:nonzero;stroke:none"
           id="path3256" />
        <path
           d="m 6805.73,1483.3 v 0.1 0 c 0,0 0,-0.1 0.01,-0.1 h -0.01"
           style="fill:#3b155f;fill-opacity:1;fill-rule:nonzero;stroke:none"
           id="path3258" />
        <path
           d="m 6760.43,1445.2 c 15.12,12.7 30.13,25.3 44.99,37.9 0.1,0.1 0.2,0.2 0.31,0.3 v -0.1 c -0.09,-0.1 -0.18,-0.1 -0.27,-0.2 -14.85,-12.6 -29.76,-25.2 -44.88,-37.8 -0.08,-0.1 -0.07,-0.1 -0.15,-0.1"
           style="fill:#855cb0;fill-opacity:1;fill-rule:nonzero;stroke:none"
           id="path3260" />
        <path
           d="m 4677.13,86 c 0.04,0 0.04,0 0.08,0.1016 831.39,440.1994 1542.7,907.0974 2083.22,1359.0984 0.08,0 0.07,0 0.15,0.1 C 6316.56,1074 5757.27,692.602 5110.86,324.199 c -0.47,-0.297 -1.03,-0.597 -1.49,-0.801 -0.56,-0.398 -1.01,-0.597 -1.57,-0.898 C 4968.19,242.902 4824.58,164.102 4677.13,86"
           style="fill:#734b9c;fill-opacity:1;fill-rule:nonzero;stroke:none"
           id="path3262" />
        <path
           d="m 4512.55,0 h -0.11 c 55.48,28.6016 110.3,57.1992 164.77,86.1016 C 4677.17,86 4677.17,86 4677.13,86 4622.8,57.1992 4567.89,28.5 4512.55,0"
           style="fill:#4f2974;fill-opacity:1;fill-rule:nonzero;stroke:none"
           id="path3264" />
        <path
           d="m 5107.8,322.5 c 0.56,0.301 1.01,0.5 1.57,0.898 -0.53,-0.398 -1.04,-0.597 -1.57,-0.898 m 3.06,1.699 C 5757.27,692.602 6316.56,1074 6760.58,1445.3 c 15.12,12.6 30.03,25.2 44.88,37.8 0.09,0.1 0.18,0.1 0.27,0.2 h 0.01 c 83.6,71 163,141.7 237.82,211.8 541.16,506.3 848.96,983.6 848.81,1370.4 0.15,-386.8 -307.65,-864.1 -848.81,-1370.4 -74.9,-70.2 -154.4,-140.9 -238.1,-212 C 6354.47,1099.9 5779.27,705.102 5110.86,324.199"
           style="fill:#59afc3;fill-opacity:1;fill-rule:nonzero;stroke:none"
           id="path3266" />
        <path
           d="m 5492.19,4281.8 c -0.01,0 -0.02,0 -0.02,0 l 0.44,0.1 c -0.14,0 -0.28,0 -0.42,-0.1"
           style="fill:#3a145e;fill-opacity:1;fill-rule:nonzero;stroke:none"
           id="path3268" />
        <path
           d="m 5831.62,3898.2 c -17.21,21.9 -34.64,43.5 -52.26,65 v 0 c 17.63,-21.5 35.06,-43.1 52.27,-65 -0.01,0 -0.01,0 -0.01,0"
           style="fill:#9c72c9;fill-opacity:1;fill-rule:nonzero;stroke:none"
           id="path3270" />
        <path
           d="m 5779.36,3963.2 c -24.66,30 -49.72,59.8 -75.14,89.2 -11.41,13.2 -22.9,26.4 -34.46,39.4 -2.56,2.9 -5.14,5.8 -7.71,8.7 14.18,-15.9 28.25,-32 42.21,-48.1 25.42,-29.5 50.46,-59.2 75.1,-89.2 v 0 m -287.2,318.6 c -0.01,0 -0.02,0 -0.02,0 h 0.03 c 0,0 0.01,0 0.02,0 -0.01,0 -0.01,0 -0.03,0"
           style="fill:#643d8a;fill-opacity:1;fill-rule:nonzero;stroke:none"
           id="path3272" />
        <path
           d="m 5669.76,4091.8 c -57.43,65 -116.72,128.3 -177.75,190 h 0.13 c 0,0 0.01,0 0.02,0 -0.02,0 -0.07,0 -0.1,0 v 0 c 58.28,-58.9 114.97,-119.4 169.99,-181.3 2.57,-2.9 5.15,-5.8 7.71,-8.7"
           style="fill:#7d4ba7;fill-opacity:1;fill-rule:nonzero;stroke:none"
           id="path3274" />
        <path
           d="m 9476.53,4160.1 c -191.74,230 -574.19,365.8 -1103.75,412.7 0.04,0.1 -0.02,0 0.02,0.1 529.65,-47 911.97,-182.8 1103.73,-412.8 m -3949.78,129.2 c 116.76,25.3 231.84,49 345.11,71.2 v -0.1 c -113.29,-22.1 -228.36,-45.8 -345.11,-71.1"
           style="fill:#3a145e;fill-opacity:1;fill-rule:nonzero;stroke:none"
           id="path3276" />
        <path
           d="m 5871.86,4360.4 v 0.1 c 98.9,19.3 196.43,37.4 292.56,54.4 385.6,68.1 748,116.8 1082.3,145.6 239.2,20.6 464.08,31 672.77,31 160.96,0 312.38,-6.2 453.31,-18.6 -0.04,-0.1 0.02,0 -0.02,-0.1 -140.92,12.5 -292.28,18.7 -453.24,18.7 -208.74,0 -433.5,-10.4 -672.78,-31 -334.3,-28.8 -696.7,-77.5 -1082.3,-145.6 -96.12,-17 -193.69,-35.1 -292.6,-54.5"
           style="fill:#3f1964;fill-opacity:1;fill-rule:nonzero;stroke:none"
           id="path3278" />
        <path
           d="m 5370.44,155 c 0.3,0.102 0.63,0.301 0.93,0.5 -0.32,-0.199 -0.61,-0.301 -0.93,-0.5 m 5.93,3 c 0.75,0.398 1.42,0.801 2.18,1.199 -0.7,-0.398 -1.49,-0.801 -2.18,-1.199 m 6.15,3.199 c 2.04,1.102 3.98,2.102 6.02,3.102 -2.02,-1 -4,-2.102 -6.02,-3.102 m 6.29,3.199 c 4.83,2.5 9.53,5 14.35,7.403 -4.72,-2.403 -9.62,-4.903 -14.35,-7.403"
           style="fill:#67398e;fill-opacity:1;fill-rule:nonzero;stroke:none"
           id="path3290" />
        <path
           d="m 5403.41,172 c 510.77,263.402 987.43,531.5 1422.75,798.801 -0.04,0 -0.04,0 -0.04,0 C 6390.83,703.5 5914.21,435.402 5403.41,172"
           style="fill:#67398e;fill-opacity:1;fill-rule:nonzero;stroke:none"
           id="path3292" />
        <path
           d="m 5063.81,0 h -0.11 c 640.25,318.301 1231.94,645.102 1762.42,970.801 65.5,40.299 130.1,80.499 193.7,120.699 1157.7,731.4 1997.6,1451.1 2374.4,2050.3 v 0 c 0.04,0 0.04,0 0.04,0 -376.8,-599.2 -1216.7,-1318.9 -2374.4,-2050.3 v 0 c -63.6,-40.2 -128.2,-80.4 -193.7,-120.699 v 0 0 0 0 C 6390.84,703.5 5914.18,435.402 5403.41,172 c -0.13,-0.102 -0.13,-0.102 -0.25,-0.199 -4.82,-2.403 -9.52,-4.903 -14.35,-7.403 -0.13,0 -0.15,0 -0.27,-0.097 -2.04,-1 -3.98,-2 -6.02,-3.102 -1.32,-0.699 -2.65,-1.398 -3.97,-2 -0.76,-0.398 -1.43,-0.801 -2.18,-1.199 -1.71,-0.801 -3.3,-1.699 -5,-2.5 -0.3,-0.199 -0.63,-0.398 -0.93,-0.5 C 5269.58,103.199 5167.26,51.4023 5063.81,0"
           style="fill:#60c8d5;fill-opacity:1;fill-rule:nonzero;stroke:none"
           id="path3294" />
        <path
           d="m 5836.16,3898.5 c 6.95,0.4 13.87,0.8 20.79,1.2 -6.92,-0.4 -13.84,-0.8 -20.79,-1.2 m 22.06,1.3 c 1.43,0.1 2.9,0.2 4.33,0.2 -1.43,0 -2.9,-0.1 -4.33,-0.2 m 7.56,0.4 c 0.68,0.1 1.38,0.1 2.07,0.1 -0.69,0 -1.39,0 -2.07,-0.1 m 604.1,5.3 c -77.63,3.7 -157.89,5.5 -240.64,5.5 82.76,0 163,-1.8 240.64,-5.5 m -241.12,5.5 c 0.09,0 0.2,0 0.3,0 v 0 c -0.1,0 -0.21,0 -0.3,0"
           style="fill:#431c67;fill-opacity:1;fill-rule:nonzero;stroke:none"
           id="path3296" />
        <path
           d="m 7702.5,3521.5 c -228.13,228 -650.86,354.3 -1213.44,383.1 v 0 c -6.37,0.3 -12.77,0.6 -19.18,0.9 -77.64,3.7 -157.88,5.5 -240.64,5.5 -0.07,0 -0.12,0 -0.18,0 v 0 0 c -0.1,0 -0.21,0 -0.3,0 -115.59,0 -236.01,-3.5 -360.91,-10.7 -0.69,0 -1.39,0 -2.07,-0.1 -1.09,0 -2.15,-0.1 -3.23,-0.2 -1.43,0 -2.9,-0.1 -4.33,-0.2 -0.43,0 -0.84,-0.1 -1.27,-0.1 -6.92,-0.4 -13.84,-0.8 -20.79,-1.2 -1.5,-0.1 -3,-0.2 -4.5,-0.3 v 0 c -0.01,0 -0.02,0 -0.03,0 137.99,8.6 270.64,12.9 397.47,12.9 89.61,0 176.33,-2.2 259.92,-6.5 562.62,-28.8 985.37,-155 1213.48,-383.1"
           style="fill:#60c8d5;fill-opacity:1;fill-rule:nonzero;stroke:none"
           id="path3298" />
        <path
           d="m 4677.11,86 h 0.02 c 147.45,78.102 291.06,156.902 430.67,236.5 C 4968.25,243 4824.49,164 4677.11,86"
           style="fill:#643d8c;fill-opacity:1;fill-rule:nonzero;stroke:none"
           id="path3300" />
        <path
           d="m 4512.6,0 h -0.05 c 55.34,28.5 110.25,57.1992 164.58,86 h -0.02 C 4622.74,57.1992 4567.99,28.6016 4512.6,0"
           style="fill:#47226c;fill-opacity:1;fill-rule:nonzero;stroke:none"
           id="path3302" />
        <path
           d="m 5109.37,323.398 c 0.46,0.204 1.02,0.504 1.49,0.801 -0.48,-0.297 -1.01,-0.597 -1.49,-0.801"
           style="fill:#643d8c;fill-opacity:1;fill-rule:nonzero;stroke:none"
           id="path3304" />
        <path
           d="M 7108.57,0 V 0 C 7669.92,298.102 8199.65,599.398 8692.81,900.301 8199.7,599.5 7669.87,298.102 7108.57,0 m 1584.61,900.5 c 1.47,0.902 2.94,1.801 4.41,2.699 -1.46,-0.898 -2.95,-1.797 -4.41,-2.699"
           style="fill:#3e1762;fill-opacity:1;fill-rule:nonzero;stroke:none"
           id="path3310" />
        <path
           d="m 8701.59,905.602 v 0 c 0.42,0.296 0.74,0.5 1.16,0.699 -0.33,-0.199 -0.83,-0.5 -1.16,-0.699"
           style="fill:#39125d;fill-opacity:1;fill-rule:nonzero;stroke:none"
           id="path3312" />
        <path
           d="m 8698.85,904 c 0.94,0.5 1.8,1.102 2.74,1.602 v 0 c -0.93,-0.5 -1.82,-1.102 -2.74,-1.602"
           style="fill:#3e1762;fill-opacity:1;fill-rule:nonzero;stroke:none"
           id="path3314" />
        <path
           d="m 8705.24,907.902 c 1.05,0.598 2.27,1.297 3.31,2 -1.12,-0.703 -2.18,-1.3 -3.31,-2 m 8.56,5.2 c 0.53,0.296 0.89,0.5 1.42,0.898 -0.47,-0.301 -0.95,-0.602 -1.42,-0.898 m 6.05,3.699 c 0.52,0.301 0.88,0.5 1.4,0.898 -0.46,-0.297 -0.94,-0.597 -1.4,-0.898 m 7.03,4.301 h 0.05 -0.05 m 133.74,859.998 c 0.43,0.4 1.01,0.9 1.44,1.3 -0.49,-0.5 -0.95,-0.9 -1.44,-1.3 m 1.85,1.6 c 0.69,0.6 1.38,1.2 2.07,1.8 -0.78,-0.7 -1.29,-1.1 -2.07,-1.8 m 2.53,2.2 c 352.78,310.7 646.53,615.1 872.86,906.4 0.01,0 0.01,0 0.02,0 C 9511.51,2400 9217.79,2095.6 8865,1784.9"
           style="fill:#39125d;fill-opacity:1;fill-rule:nonzero;stroke:none"
           id="path3316" />
        <path
           d="m 6707.16,0 h -0.04 c 14.07,60.8984 26.94,122.199 38.63,184.102 0.02,0 0.03,0 0.05,0 C 6734.11,122.199 6721.23,60.8984 6707.16,0 v 0"
           style="fill:#6e8abb;fill-opacity:1;fill-rule:nonzero;stroke:none"
           id="path3326" />
        <path
           d="m 18142.1,9675.61 c -0.1,0 -0.1,0 -0.1,0.01 v 0 c -66.3,68.13 -127.7,140.49 -183.9,216.43 3.9,-5.34 7.9,-10.66 11.9,-15.97 v 0 c 32.2,-42.56 65.9,-83.93 101.3,-124 v 0 c 23,-26.03 46.6,-51.54 70.8,-76.47"
           style="fill:#3d1661;fill-opacity:1;fill-rule:nonzero;stroke:none"
           id="path3356" />
        <path
           d="m 21780.8,11327.7 c -4,49.5 -9.8,98.7 -17.2,147.4 v 0 c -5.2,34.7 -11.4,69.3 -18.3,103.6 16.8,-82.5 28.7,-166.3 35.5,-251 m -129,575.9 c -19.6,52.1 -41.3,103.4 -64.9,153.7 -5.2,11.3 -10.6,22.5 -16,33.7 29.9,-61.1 56.9,-123.6 80.9,-187.4"
           style="fill:#3d1661;fill-opacity:1;fill-rule:nonzero;stroke:none"
           id="path3364" />
        <path
           d="m 21534.1,12162.6 c -8,14.9 -16.1,29.6 -24.4,44.2 8.3,-14.6 16.4,-29.3 24.4,-44.2"
           style="fill:#3d1661;fill-opacity:1;fill-rule:nonzero;stroke:none"
           id="path3370" />
        <path
           d="m 20311.6,9135.01 c 0.1,0.03 0.1,0.06 0.2,0.08 -0.1,-0.03 -0.1,-0.05 -0.2,-0.08"
           style="fill:#39125d;fill-opacity:1;fill-rule:nonzero;stroke:none"
           id="path3388" />
        <path
           d="m 20562.4,9233.5 v 0 c 0.7,0.34 1.5,0.67 2.2,1.02 0.1,0.08 0.3,0.17 0.5,0.25 -0.9,-0.42 -1.8,-0.85 -2.7,-1.27 v 0 m 4.4,2.08 c 0.2,0.08 0.4,0.15 0.5,0.23 -0.1,-0.08 -0.3,-0.16 -0.5,-0.23 m 193.8,103.66 c 0.5,0.27 0.9,0.54 1.4,0.81 -0.5,-0.28 -0.9,-0.54 -1.4,-0.81 m 2.4,1.45 c 9.3,5.59 18.5,11.25 27.6,16.98 0.2,0.15 0.5,0.31 0.7,0.45 0.5,0.26 0.9,0.53 1.3,0.79 77.9,48.89 152.8,102.87 223.9,161.66 4.5,3.66 8.9,7.35 13.3,11.05 v 0 0 0 c 23.8,19.97 47.2,40.48 70.2,61.52 v 0 0 c -104,-95.34 -217,-179.85 -337,-252.45 m 454.6,368.93 c 52.8,56.64 102.7,116.43 149.4,179.16 v 0 c 20,26.83 39.4,54.17 58.1,82.09 v 0 c 18,26.55 35.3,53.53 52,81.03 -75.3,-123.89 -162.5,-238.33 -259.5,-342.28"
           style="fill:#39125d;fill-opacity:1;fill-rule:nonzero;stroke:none"
           id="path3392" />
        <path
           d="m 21477.2,10052.2 c 0.5,0.7 0.9,1.5 1.4,2.2 -0.5,-0.7 -0.9,-1.5 -1.4,-2.2 m 1.8,2.8 c 0.5,0.9 1,1.7 1.5,2.5 232.94,559.237 252.832,435.561 0,0 -0.5,-0.8 -1,-1.6 -1.5,-2.5 m 256.7,637.9 c 1.2,5.3 2.3,10.5 3.5,15.7 0.1,0.7 0.3,1.4 0.5,2.2 v 0.2 c 6.3,29.2 12,58.4 17,87.7 0.4,2.4 0.9,4.9 1.3,7.4 v 0 0 0 c 1.5,9.2 3,18.3 4.5,27.5 -7.3,-46.9 -16.2,-93.8 -26.8,-140.7 m 40.9,250.5 c 0.9,8.3 1.6,16.7 2.3,25 v 0 c 2.5,25.9 4.3,51.7 5.7,77.5 v 0 c 0.5,9.6 1,19.2 1.3,28.7 -1.7,-43.6 -4.8,-87.4 -9.3,-131.2"
           style="fill:#39125d;fill-opacity:1;fill-rule:nonzero;stroke:none"
           id="path3396"
           sodipodi:nodetypes="ccccccccccccsccscccsssscc" />
        <path
           d="m 21787.5,11131.9 v 0 c 0,1.6 0,3.2 0,4.8 0,-1.6 0,-3.2 0,-4.8 v 0"
           style="fill:#39125d;fill-opacity:1;fill-rule:nonzero;stroke:none"
           id="path3400" />
        <path
           d="m 20564.6,9234.52 c 77.7,36.47 153.2,77.59 226,123.15 -9.1,-5.73 -18.3,-11.39 -27.6,-16.98 -0.3,-0.22 -0.7,-0.43 -1,-0.64 -0.5,-0.27 -0.9,-0.54 -1.4,-0.81 -62.6,-37.76 -127.1,-72.29 -193.3,-103.43 -0.1,-0.08 -0.3,-0.15 -0.5,-0.23 -0.5,-0.28 -1.1,-0.54 -1.7,-0.81 -0.2,-0.08 -0.4,-0.17 -0.5,-0.25 m 226.7,123.6 c 0.5,0.27 0.9,0.53 1.3,0.79 -0.4,-0.26 -0.8,-0.53 -1.3,-0.79"
           style="fill:#712042;fill-opacity:1;fill-rule:nonzero;stroke:none"
           id="path3406" />
        <path
           d="m 24947.5,3050.4 c -6.6,0 -13.1,0.3 -19.6,0.8 25.3,2 49.6,7.9 72.1,17 v -12.1 c -16.9,-3.7 -34.5,-5.7 -52.5,-5.7 m 52.5,471 c -22.5,9.2 -46.8,15 -72.1,17 6.5,0.5 13,0.8 19.6,0.8 18,0 35.6,-2 52.5,-5.7 v -12.1"
           style="fill:#9c5aaa;fill-opacity:1;fill-rule:nonzero;stroke:none"
           id="path3806" />
        <path
           d="m 1489.92,11674.1 c 79.54,7.4 135.47,22.4 135.47,22.4 0,0 -55.93,15 -135.47,22.4 -15.46,1.4 -29.43,7.9 -40.21,17.9 -12.14,11.2 -20.24,26.7 -21.85,44.1 -7.38,79.6 -22.36,135.5 -22.36,135.5 0,0 -14.98,-55.9 -22.36,-135.5 -3.05,-32.8 -29.19,-59 -62.06,-62 -79.54,-7.4 -135.47,-22.4 -135.47,-22.4 0,0 55.93,-15 135.47,-22.4 32.87,-3 59.01,-29.2 62.06,-62 7.38,-79.6 22.36,-135.5 22.36,-135.5 0,0 14.98,55.9 22.36,135.5 3.05,32.8 29.19,59 62.06,62"
           style="fill:#ffffff;fill-opacity:1;fill-rule:nonzero;stroke:none"
           id="path3818" />
        <path
           d="m 10590.1,14876.8 c 79.5,7.4 135.5,22.4 135.5,22.4 0,0 -56,14.9 -135.5,22.3 -15.5,1.4 -29.4,8 -40.2,17.9 -12.2,11.2 -20.2,26.8 -21.9,44.2 -7.3,79.5 -22.3,135.4 -22.3,135.4 0,0 -15,-55.9 -22.4,-135.4 -3,-32.9 -29.2,-59 -62,-62.1 -79.6,-7.4 -135.5,-22.3 -135.5,-22.3 0,0 55.9,-15 135.5,-22.4 32.8,-3.1 59,-29.2 62,-62.1 7.4,-79.5 22.4,-135.4 22.4,-135.4 0,0 15,55.9 22.3,135.4 3.1,32.9 29.2,59 62.1,62.1"
           style="fill:#ffffff;fill-opacity:1;fill-rule:nonzero;stroke:none"
           id="path3820" />
        <path
           d="m 18171.3,6703.23 c 79.5,7.39 135.4,22.37 135.4,22.37 0,0 -55.9,14.98 -135.4,22.35 -15.5,1.43 -29.5,7.98 -40.2,17.93 -12.2,11.2 -20.3,26.72 -21.9,44.13 -7.4,79.54 -22.3,135.48 -22.3,135.48 0,0 -15,-55.94 -22.4,-135.48 -3.1,-32.87 -29.2,-59 -62.1,-62.06 -79.5,-7.37 -135.4,-22.35 -135.4,-22.35 0,0 55.9,-14.98 135.4,-22.37 32.9,-3.04 59,-29.19 62.1,-62.06 7.4,-79.54 22.4,-135.47 22.4,-135.47 0,0 14.9,55.93 22.3,135.47 3.1,32.87 29.2,59.02 62.1,62.06"
           style="fill:#ffffff;fill-opacity:1;fill-rule:nonzero;stroke:none"
           id="path3822" />
        <path
           d="m 21667.8,8332.11 c 79.5,7.38 135.4,22.36 135.4,22.36 0,0 -55.9,14.98 -135.4,22.36 -15.5,1.44 -29.5,7.97 -40.3,17.92 -12.1,11.21 -20.2,26.73 -21.8,44.14 -7.4,79.54 -22.4,135.48 -22.4,135.48 0,0 -14.9,-55.94 -22.3,-135.48 -3.1,-32.87 -29.2,-59.01 -62.1,-62.06 -79.5,-7.38 -135.5,-22.36 -135.5,-22.36 0,0 56,-14.98 135.5,-22.36 32.9,-3.05 59,-29.19 62.1,-62.06 7.4,-79.54 22.3,-135.47 22.3,-135.47 0,0 15,55.93 22.4,135.47 3,32.87 29.2,59.01 62.1,62.06"
           style="fill:#ffffff;fill-opacity:1;fill-rule:nonzero;stroke:none"
           id="path3824" />
        <path
           d="m 23646.8,12925.6 c 79.6,7.3 135.5,22.3 135.5,22.3 0,0 -55.9,15 -135.5,22.4 -15.4,1.4 -29.4,8 -40.2,17.9 -12.1,11.2 -20.2,26.7 -21.8,44.1 -7.4,79.6 -22.4,135.5 -22.4,135.5 0,0 -15,-55.9 -22.4,-135.5 -3,-32.8 -29.1,-59 -62,-62 -79.6,-7.4 -135.5,-22.4 -135.5,-22.4 0,0 55.9,-15 135.5,-22.3 32.9,-3.1 59,-29.2 62,-62.1 7.4,-79.6 22.4,-135.5 22.4,-135.5 0,0 15,55.9 22.4,135.5 3,32.9 29.2,59 62,62.1"
           style="fill:#ffffff;fill-opacity:1;fill-rule:nonzero;stroke:none"
           id="path3826" />
        <path
           d="m 5990,6912.68 c 79.54,7.37 135.47,22.35 135.47,22.35 0,0 -55.93,14.98 -135.47,22.36 -15.46,1.44 -29.43,7.98 -40.21,17.92 -12.14,11.2 -20.23,26.73 -21.85,44.14 -7.38,79.54 -22.36,135.47 -22.36,135.47 0,0 -14.98,-55.93 -22.36,-135.47 -3.05,-32.87 -29.19,-59.01 -62.06,-62.06 -79.54,-7.38 -135.47,-22.36 -135.47,-22.36 0,0 55.93,-14.98 135.47,-22.35 32.87,-3.06 59.01,-29.19 62.06,-62.06 7.38,-79.55 22.36,-135.48 22.36,-135.48 0,0 14.98,55.93 22.36,135.48 3.05,32.87 29.19,59 62.06,62.06"
           style="fill:#ffffff;fill-opacity:1;fill-rule:nonzero;stroke:none"
           id="path3828" />
        <path
           d="m 16246,13532 c 79.6,7.4 135.5,22.4 135.5,22.4 0,0 -55.9,15 -135.5,22.3 -15.4,1.5 -29.4,8 -40.2,18 -12.1,11.2 -20.2,26.7 -21.8,44.1 -7.4,79.5 -22.4,135.5 -22.4,135.5 0,0 -15,-56 -22.4,-135.5 -3,-32.9 -29.2,-59 -62,-62.1 -79.6,-7.3 -135.5,-22.3 -135.5,-22.3 0,0 55.9,-15 135.5,-22.4 32.8,-3 59,-29.2 62,-62 7.4,-79.6 22.4,-135.5 22.4,-135.5 0,0 15,55.9 22.4,135.5 3,32.8 29.1,59 62,62"
           style="fill:#ffffff;fill-opacity:1;fill-rule:nonzero;stroke:none"
           id="path3830" />
        <path
           d="m 13985.4,2943.8 c 79.6,7.4 135.5,22.3 135.5,22.3 0,0 -55.9,15 -135.5,22.4 -15.4,1.4 -29.4,8 -40.2,17.9 -12.1,11.2 -20.2,26.7 -21.8,44.2 -7.4,79.5 -22.4,135.4 -22.4,135.4 0,0 -15,-55.9 -22.3,-135.4 -3.1,-32.9 -29.2,-59.1 -62.1,-62.1 -79.5,-7.4 -135.5,-22.4 -135.5,-22.4 0,0 56,-14.9 135.5,-22.3 32.9,-3.1 59,-29.2 62.1,-62.1 7.3,-79.5 22.3,-135.5 22.3,-135.5 0,0 15,56 22.4,135.5 3,32.9 29.2,59 62,62.1"
           style="fill:#ffffff;fill-opacity:1;fill-rule:nonzero;stroke:none"
           id="path3832" />
        <path
           d="m 8032.06,13066.7 c 79.54,7.4 135.47,22.4 135.47,22.4 0,0 -55.93,15 -135.47,22.3 -15.46,1.5 -29.43,8 -40.21,18 -12.14,11.2 -20.23,26.7 -21.85,44.1 -7.38,79.5 -22.36,135.5 -22.36,135.5 0,0 -14.98,-56 -22.36,-135.5 -3.05,-32.9 -29.19,-59 -62.06,-62.1 -79.54,-7.3 -135.47,-22.3 -135.47,-22.3 0,0 55.93,-15 135.47,-22.4 32.87,-3 59.01,-29.2 62.06,-62 7.38,-79.6 22.36,-135.5 22.36,-135.5 0,0 14.98,55.9 22.36,135.5 3.05,32.8 29.19,59 62.06,62"
           style="fill:#ffffff;fill-opacity:1;fill-rule:nonzero;stroke:none"
           id="path3834" />
        <path
           d="m 12168.2,1966.3 c -70.9,0 -71.1,-110.2 0,-110.2 70.9,0 71,110.2 0,110.2"
           style="fill:#ffffff;fill-opacity:1;fill-rule:nonzero;stroke:none"
           id="path3836" />
        <path
           d="m 17778.7,2927.9 c -72.8,0 -72.9,-113.2 0,-113.2 72.8,0 72.9,113.2 0,113.2"
           style="fill:#ffffff;fill-opacity:1;fill-rule:nonzero;stroke:none"
           id="path3838" />
        <path
           d="m 22549.2,5782.5 c -78.5,0 -78.6,-121.9 0,-121.9 78.5,0 78.6,121.9 0,121.9"
           style="fill:#ffffff;fill-opacity:1;fill-rule:nonzero;stroke:none"
           id="path3840" />
        <path
           d="m 19458.9,7783.95 c -67.1,0 -67.3,-104.33 0,-104.33 67.1,0 67.2,104.33 0,104.33"
           style="fill:#ffffff;fill-opacity:1;fill-rule:nonzero;stroke:none"
           id="path3842" />
        <path
           d="m 24049.3,9212.06 c -90.2,0 -90.4,-140.27 0,-140.27 90.3,0 90.4,140.27 0,140.27"
           style="fill:#ffffff;fill-opacity:1;fill-rule:nonzero;stroke:none"
           id="path3844" />
        <path
           d="m 22729.2,11475.8 c -69,0 -69.1,-107.3 0,-107.3 69,0 69.1,107.3 0,107.3"
           style="fill:#ffffff;fill-opacity:1;fill-rule:nonzero;stroke:none"
           id="path3846" />
        <path
           d="m 23929.3,14566.8 c -69.9,0 -70,-108.7 0,-108.7 70,0 70.1,108.7 0,108.7"
           style="fill:#ffffff;fill-opacity:1;fill-rule:nonzero;stroke:none"
           id="path3848" />
        <path
           d="m 18438.8,15166.2 c -69,0 -69.2,-107.3 0,-107.3 69,0 69.1,107.3 0,107.3"
           style="fill:#ffffff;fill-opacity:1;fill-rule:nonzero;stroke:none"
           id="path3850" />
        <path
           d="m 17538.7,12824.1 c -66.7,0 -66.8,-103.6 0,-103.6 66.7,0 66.8,103.6 0,103.6"
           style="fill:#ffffff;fill-opacity:1;fill-rule:nonzero;stroke:none"
           id="path3852" />
        <path
           d="m 15018.4,14546.4 c -82.2,0 -82.3,-127.8 0,-127.8 82.3,0 82.4,127.8 0,127.8"
           style="fill:#ffffff;fill-opacity:1;fill-rule:nonzero;stroke:none"
           id="path3854" />
        <path
           d="m 8927.83,12408.4 c -72.32,0 -72.44,-112.4 0,-112.4 72.33,0 72.44,112.4 0,112.4"
           style="fill:#ffffff;fill-opacity:1;fill-rule:nonzero;stroke:none"
           id="path3856" />
        <path
           d="m 6979.1422,3328.2778 c -72.32,0 -72.44,-112.4 0,-112.4 72.33,0 72.44,112.4 0,112.4"
           style="fill:#ffffff;fill-opacity:1;fill-rule:nonzero;stroke:none"
           id="path3856-7" />
        <path
           d="m 13188.3,14059 c -72.8,0 -72.9,-113.2 0,-113.2 72.8,0 72.9,113.2 0,113.2"
           style="fill:#ffffff;fill-opacity:1;fill-rule:nonzero;stroke:none"
           id="path3858" />
        <path
           d="m 8957.84,15432.9 c -64.77,0 -64.88,-100.7 0,-100.7 64.77,0 64.87,100.7 0,100.7"
           style="fill:#ffffff;fill-opacity:1;fill-rule:nonzero;stroke:none"
           id="path3860" />
        <path
           d="m 6137.55,14555.4 c -55.32,0 -55.42,-85.9 0,-85.9 55.34,0 55.43,85.9 0,85.9"
           style="fill:#ffffff;fill-opacity:1;fill-rule:nonzero;stroke:none"
           id="path3862" />
        <path
           d="m 9647.91,14053.8 c -66.19,0 -66.3,-102.8 0,-102.8 66.18,0 66.29,102.8 0,102.8"
           style="fill:#ffffff;fill-opacity:1;fill-rule:nonzero;stroke:none"
           id="path3864" />
        <path
           d="m 2717.21,15336.3 c -56.27,0 -56.37,-87.5 0,-87.5 56.28,0 56.37,87.5 0,87.5"
           style="fill:#ffffff;fill-opacity:1;fill-rule:nonzero;stroke:none"
           id="path3866" />
        <path
           d="m 1487.09,13631.6 c -63.35,0 -63.46,-98.5 0,-98.5 63.35,0 63.46,98.5 0,98.5"
           style="fill:#ffffff;fill-opacity:1;fill-rule:nonzero;stroke:none"
           id="path3868" />
        <path
           d="m 1187.06,14911.8 c -50.61,0 -50.69,-78.6 0,-78.6 50.61,0 50.69,78.6 0,78.6"
           style="fill:#ffffff;fill-opacity:1;fill-rule:nonzero;stroke:none"
           id="path3870" />
        <path
           d="m 3377.28,10356.5 c -57.22,0 -57.31,-88.9 0,-88.9 57.22,0 57.31,88.9 0,88.9"
           style="fill:#ffffff;fill-opacity:1;fill-rule:nonzero;stroke:none"
           id="path3872" />
        <path
           d="m 1187.06,9318.13 c -72.32,0 -72.44,-112.39 0,-112.39 72.32,0 72.44,112.39 0,112.39"
           style="fill:#ffffff;fill-opacity:1;fill-rule:nonzero;stroke:none"
           id="path3874" />
        <path
           d="m 3527.29,6107.81 c -72.32,0 -72.44,-112.41 0,-112.41 72.32,0 72.45,112.41 0,112.41"
           style="fill:#ffffff;fill-opacity:1;fill-rule:nonzero;stroke:none"
           id="path3876" />
        <path
           d="m 1877.13,7126.08 c -69.96,0 -70.08,-108.73 0,-108.73 69.96,0 70.08,108.73 0,108.73"
           style="fill:#ffffff;fill-opacity:1;fill-rule:nonzero;stroke:none"
           id="path3878" />
        <path
           d="m 4667.41,8385.47 c -69.02,0 -69.13,-107.26 0,-107.26 69.02,0 69.13,107.26 0,107.26"
           style="fill:#ffffff;fill-opacity:1;fill-rule:nonzero;stroke:none"
           id="path3880" />
        <path
           d="m 14028.3,6378.94 c -73.7,0 -73.8,-114.59 0,-114.59 73.8,0 73.9,114.59 0,114.59"
           style="fill:#ffffff;fill-opacity:1;fill-rule:nonzero;stroke:none"
           id="path3882" />
        <path
           d="m 16338.6,4096.9 c -71.4,0 -71.5,-111 0,-111 71.4,0 71.5,111 0,111"
           style="fill:#ffffff;fill-opacity:1;fill-rule:nonzero;stroke:none"
           id="path3884" />
        <path
           d="m 23239.3,4583.2 c -79.4,0 -79.6,-123.4 0,-123.4 79.4,0 79.5,123.4 0,123.4"
           style="fill:#ffffff;fill-opacity:1;fill-rule:nonzero;stroke:none"
           id="path3886" />
        <path
           d="m 19278.9,713.801 c -42.1,0 -42.2,-65.5 0,-65.5 42.1,0 42.2,65.5 0,65.5"
           style="fill:#ffffff;fill-opacity:1;fill-rule:nonzero;stroke:none"
           id="path3888" />
        <path
           d="m 14988.4,1340.6 c -76.5,0 -76.7,-119 0,-119 76.6,0 76.7,119 0,119"
           style="fill:#ffffff;fill-opacity:1;fill-rule:nonzero;stroke:none"
           id="path3890" />
        <path
           d="m 10818,1244 c -68,0 -68.2,-105.8 0,-105.8 68.1,0 68.2,105.8 0,105.8"
           style="fill:#ffffff;fill-opacity:1;fill-rule:nonzero;stroke:none"
           id="path3892" />
        <path
           d="m 17988.7,8512.02 c -38.8,0 -38.8,-60.32 0,-60.32 38.8,0 38.9,60.32 0,60.32"
           style="fill:#ffffff;fill-opacity:1;fill-rule:nonzero;stroke:none"
           id="path3894" />
        <path
           d="m 13728.3,9244.56 c -54.8,0 -54.9,-85.26 0,-85.26 54.9,0 55,85.26 0,85.26"
           style="fill:#ffffff;fill-opacity:1;fill-rule:nonzero;stroke:none"
           id="path3896" />
        <path
           d="m 16218.6,11426 c -43.6,0 -43.6,-67.7 0,-67.7 43.5,0 43.6,67.7 0,67.7"
           style="fill:#ffffff;fill-opacity:1;fill-rule:nonzero;stroke:none"
           id="path3898" />
        <path
           d="m 20719,14777.2 c -70.4,0 -70.5,-109.4 0,-109.4 70.4,0 70.6,109.4 0,109.4"
           style="fill:#ffffff;fill-opacity:1;fill-rule:nonzero;stroke:none"
           id="path3900" />
        <path
           d="m 21376.5,3965.5 c -43.5,0 -43.6,-67.6 0,-67.6 43.5,0 43.6,67.6 0,67.6"
           style="fill:#ffffff;fill-opacity:1;fill-rule:nonzero;stroke:none"
           id="path3902" />
        <path
           d="m 24146.6,5963.5 c -48.1,0 -48.2,-74.7 0,-74.7 48.1,0 48.1,74.7 0,74.7"
           style="fill:#ffffff;fill-opacity:1;fill-rule:nonzero;stroke:none"
           id="path3904" />
        <path
           d="m 18357.1,3849 c -36.2,0 -36.2,-56.2 0,-56.2 36.1,0 36.2,56.2 0,56.2"
           style="fill:#ffffff;fill-opacity:1;fill-rule:nonzero;stroke:none"
           id="path3906" />
        <path
           d="m 17249.1,969.301 c -37.7,0 -37.8,-58.5 0,-58.5 37.6,0 37.7,58.5 0,58.5"
           style="fill:#ffffff;fill-opacity:1;fill-rule:nonzero;stroke:none"
           id="path3908" />
        <path
           d="m 14035.8,4046.7 c -41,0 -41.1,-63.7 0,-63.7 40.9,0 41,63.7 0,63.7"
           style="fill:#ffffff;fill-opacity:1;fill-rule:nonzero;stroke:none"
           id="path3910" />
        <path
           d="m 20268.4,5819.3 c -40.7,0 -40.7,-63.3 0,-63.3 40.8,0 40.8,63.3 0,63.3"
           style="fill:#ffffff;fill-opacity:1;fill-rule:nonzero;stroke:none"
           id="path3912" />
        <path
           d="m 20711.7,8441.02 c -28,0 -28.1,-43.53 0,-43.53 28,0 28,43.53 0,43.53"
           style="fill:#ffffff;fill-opacity:1;fill-rule:nonzero;stroke:none"
           id="path3914" />
        <path
           d="m 20517.8,14044.5 c -38.2,0 -38.3,-59.3 0,-59.3 38.1,0 38.2,59.3 0,59.3"
           style="fill:#ffffff;fill-opacity:1;fill-rule:nonzero;stroke:none"
           id="path3916" />
        <path
           d="m 16833.5,15565.7 c -35.1,0 -35.1,-54.6 0,-54.6 35.2,0 35.2,54.6 0,54.6"
           style="fill:#ffffff;fill-opacity:1;fill-rule:nonzero;stroke:none"
           id="path3918" />
        <path
           d="m 15060.7,12214.1 c -35.4,0 -35.4,-55 0,-55 35.4,0 35.4,55 0,55"
           style="fill:#ffffff;fill-opacity:1;fill-rule:nonzero;stroke:none"
           id="path3920" />
        <path
           d="m 11210.3,13018.2 c -36.4,0 -36.5,-56.6 0,-56.6 36.4,0 36.4,56.6 0,56.6"
           style="fill:#ffffff;fill-opacity:1;fill-rule:nonzero;stroke:none"
           id="path3922" />
        <path
           d="m 12235.2,8697.44 c -37.2,0 -37.2,-57.76 0,-57.76 37.2,0 37.2,57.76 0,57.76"
           style="fill:#ffffff;fill-opacity:1;fill-rule:nonzero;stroke:none"
           id="path3924" />
        <path
           d="m 6528.84,10220 c -35.9,0 -35.95,-55.8 0,-55.8 35.89,0 35.95,55.8 0,55.8"
           style="fill:#ffffff;fill-opacity:1;fill-rule:nonzero;stroke:none"
           id="path3926" />
        <path
           d="m 9742.13,7396.88 c -38.94,0 -39,-60.52 0,-60.52 38.94,0 39.01,60.52 0,60.52"
           style="fill:#ffffff;fill-opacity:1;fill-rule:nonzero;stroke:none"
           id="path3928" />
        <path
           d="m 2927.73,8745.73 c -28.01,0 -28.06,-43.54 0,-43.54 28.01,0 28.06,43.54 0,43.54"
           style="fill:#ffffff;fill-opacity:1;fill-rule:nonzero;stroke:none"
           id="path3930" />
        <path
           d="m 4949.89,6592.57 c -37.67,0 -37.74,-58.55 0,-58.55 37.67,0 37.73,58.55 0,58.55"
           style="fill:#ffffff;fill-opacity:1;fill-rule:nonzero;stroke:none"
           id="path3932" />
        <path
           d="m 4977.59,9724.74 c -40.21,0 -40.28,-62.5 0,-62.5 40.21,0 40.28,62.5 0,62.5"
           style="fill:#ffffff;fill-opacity:1;fill-rule:nonzero;stroke:none"
           id="path3934" />
        <path
           d="m 2623.02,14125.2 c -35.13,0 -35.19,-54.6 0,-54.6 35.13,0 35.19,54.6 0,54.6"
           style="fill:#ffffff;fill-opacity:1;fill-rule:nonzero;stroke:none"
           id="path3936" />
        <path
           d="m 5448.51,15156.3 c -43.01,0 -43.09,-66.9 0,-66.9 43,0 43.07,66.9 0,66.9"
           style="fill:#ffffff;fill-opacity:1;fill-rule:nonzero;stroke:none"
           id="path3938" />
        <path
           d="m 1847.4,10111 c -38.18,0 -38.25,-59.4 0,-59.4 38.18,0 38.24,59.4 0,59.4"
           style="fill:#ffffff;fill-opacity:1;fill-rule:nonzero;stroke:none"
           id="path3940" />
        <path
           d="m 9742.13,720 c -37.67,0 -37.73,-58.598 0,-58.598 37.67,0 37.74,58.598 0,58.598"
           style="fill:#ffffff;fill-opacity:1;fill-rule:nonzero;stroke:none"
           id="path3942" />
        <path
           d="m 8495.6,4815.8 c -32.59,0 -32.65,-50.7 0,-50.7 32.58,0 32.64,50.7 0,50.7"
           style="fill:#ffffff;fill-opacity:1;fill-rule:nonzero;stroke:none"
           id="path3944" />
        <path
           d="m 7387.56,6924.59 c -37.16,0 -37.22,-57.76 0,-57.76 37.17,0 37.23,57.76 0,57.76"
           style="fill:#ffffff;fill-opacity:1;fill-rule:nonzero;stroke:none"
           id="path3946" />
        <path
           d="m 15143.8,5316 c -34.6,0 -34.7,-53.8 0,-53.8 34.6,0 34.7,53.8 0,53.8"
           style="fill:#ffffff;fill-opacity:1;fill-rule:nonzero;stroke:none"
           id="path3948" />
        <path
           d="m 20185.4,2910.9 c -41,0 -41.1,-63.7 0,-63.7 40.9,0 41,63.7 0,63.7"
           style="fill:#ffffff;fill-opacity:1;fill-rule:nonzero;stroke:none"
           id="path3952" />
        <path
           d="m 18218.6,5627.4 c -43.3,0 -43.3,-67.3 0,-67.3 43.3,0 43.3,67.3 0,67.3"
           style="fill:#ffffff;fill-opacity:1;fill-rule:nonzero;stroke:none"
           id="path3950" />
        <path
           d="m 4582.0539,2113.4134 c -37.67,0 -37.74,-58.55 0,-58.55 37.67,0 37.73,58.55 0,58.55"
           style="fill:#ffffff;fill-opacity:1;fill-rule:nonzero;stroke:none"
           id="path3932-6" />
      </g>
    </g>
  </g>
</svg>
